<svg width="1080" height="200" viewBox="0 0 1080 200" fill="none" xmlns="http://www.w3.org/2000/svg">
<g clip-path="url(#clip0)">
<rect width="1080" height="200" fill="white"/>
<path d="M51.17 39.23V40.886H54.878V41.876H56.66V40.886H58.622V39.23H56.66V38.186H54.878V39.23H51.17ZM59.378 39.23V40.886H61.358V41.876H63.14V40.886H66.848V39.23H63.14V38.186H61.358V39.23H59.378ZM54.698 42.164V45.89H53.69V42.956H52.142V45.89H51.08V47.474H54.536V50.876H55.652C54.572 51.992 53.096 52.766 51.224 53.234L52.124 54.764C55.436 53.864 57.65 51.902 58.766 48.86L57.452 48.032C57.128 48.878 56.678 49.652 56.12 50.354V47.474H58.802V45.89H56.354V44.774H58.37V43.262H56.354V42.164H54.698ZM52.772 47.888C52.304 49.004 51.764 49.94 51.134 50.732L52.43 51.668C53.078 50.804 53.636 49.76 54.122 48.572L52.772 47.888ZM59.432 44.468V52.064H60.962C60.278 52.64 59.468 53.144 58.514 53.594L59.468 54.854C60.602 54.278 61.556 53.594 62.348 52.838L61.466 52.064H64.274L63.428 52.874C64.526 53.576 65.372 54.242 65.966 54.854L67.046 53.756C66.398 53.216 65.624 52.64 64.688 52.064H66.344V44.468H63.428C63.518 44.216 63.608 43.964 63.68 43.694H66.758V42.182H59.054V43.694H61.97C61.898 43.946 61.808 44.198 61.7 44.468H59.432ZM64.724 50.66H61.016V49.832H64.724V50.66ZM61.016 48.626V47.78H64.724V48.626H61.016ZM61.016 46.574V45.782H64.724V46.574H61.016ZM68.99 40.688V42.506H73.886C73.868 43.064 73.832 43.784 73.796 44.684C73.706 46.376 73.364 47.906 72.77 49.256C72.158 50.606 70.898 52.082 68.99 53.666L70.358 54.998C71.96 53.702 73.202 52.262 74.084 50.696C74.714 49.562 75.146 48.32 75.398 46.952H81.122C81.086 49.436 81.032 50.948 80.924 51.506C80.708 52.514 80.258 53.036 79.556 53.072C78.89 53.072 78.08 53.036 77.126 52.982L77.684 54.692C78.476 54.746 79.16 54.782 79.754 54.782C81.158 54.746 82.076 54.044 82.49 52.64C82.778 51.668 82.958 49.166 83.03 45.17H75.614C75.686 44.072 75.722 43.19 75.758 42.506H85.082V40.688H78.44C78.044 39.698 77.594 38.834 77.126 38.114L75.344 38.78C75.794 39.392 76.172 40.022 76.496 40.688H68.99ZM102.776 39.914H96.116C95.9 39.212 95.648 38.582 95.396 38.024L93.218 38.384C93.506 38.852 93.758 39.374 94.01 39.914H87.224V44.216H89.114V41.696H100.886V44.216H102.776V39.914ZM90.068 43.172V44.9H97.124C96.422 45.332 95.468 45.854 94.28 46.466V47.996H86.972V49.796H94.28V52.37C94.28 52.892 94.064 53.162 93.668 53.162C92.93 53.162 92.246 53.144 91.634 53.108L92.084 54.818H94.298C95.54 54.818 96.17 54.206 96.17 53V49.796H103.046V47.996H96.17V47.222C97.538 46.466 98.798 45.692 99.914 44.9V43.172H90.068ZM111.254 38.744H105.692V43.55H105.026V46.664H106.016V49.796C105.998 51.38 105.62 52.676 104.882 53.702L106.106 54.836C106.754 53.936 107.186 52.838 107.402 51.542L107.618 52.298C108.284 52.1 108.914 51.884 109.49 51.668V52.784C109.49 53.108 109.274 53.288 108.842 53.288C108.554 53.288 108.23 53.252 107.906 53.216L108.32 54.728H109.328C110.48 54.728 111.056 54.26 111.056 53.324V46.61H111.866V43.55H111.254V38.744ZM107.492 50.84C107.528 50.462 107.564 50.084 107.564 49.688V49.472C107.978 49.598 108.392 49.742 108.824 49.922L109.328 48.716C108.752 48.5 108.176 48.338 107.564 48.194V47.348H109.49V50.21C108.878 50.426 108.212 50.642 107.492 50.84ZM106.556 45.944V44.918H110.336V45.944H106.556ZM107.222 43.55V40.148H109.742V41.174H107.816V43.55H107.222ZM109.022 43.55V42.434H109.742V43.55H109.022ZM112.46 39.446V45.17H120.722V39.446H118.652V38.276H117.086V39.446H116.114V38.276H114.53V39.446H112.46ZM119.318 43.91H118.274V42.938H119.318V43.91ZM117.086 43.91H116.114V42.938H117.086V43.91ZM114.89 43.91H113.882V42.938H114.89V43.91ZM113.882 41.786V40.796H114.89V41.786H113.882ZM116.114 40.796H117.086V41.786H116.114V40.796ZM118.274 40.796H119.318V41.786H118.274V40.796ZM112.028 45.836V47.276H121.118V45.836H112.028ZM112.766 47.942V51.686H113.792L114.134 52.82H111.65V54.386H121.244V52.82H118.958L119.264 51.686H120.326V47.942H112.766ZM115.79 52.82L115.448 51.686H117.626L117.32 52.82H115.79ZM118.724 50.318H114.368V49.256H118.724V50.318ZM129.254 40.148V53H131.36V48.068H134.546C137.678 48.068 139.244 46.736 139.244 44.09C139.244 41.462 137.678 40.148 134.582 40.148H129.254ZM131.36 41.948H134.42C135.338 41.948 136.022 42.11 136.454 42.452C136.886 42.776 137.12 43.316 137.12 44.09C137.12 44.864 136.904 45.422 136.472 45.764C136.04 46.088 135.356 46.268 134.42 46.268H131.36V41.948ZM142.255 39.896C141.859 39.896 141.535 40.022 141.265 40.274C140.995 40.526 140.869 40.85 140.869 41.246C140.869 41.642 140.995 41.966 141.265 42.236C141.535 42.488 141.859 42.614 142.255 42.614C142.651 42.614 142.975 42.488 143.245 42.236C143.515 41.984 143.659 41.642 143.659 41.246C143.659 40.85 143.515 40.526 143.263 40.274C142.993 40.022 142.651 39.896 142.255 39.896ZM141.229 43.694V53H143.281V43.694H141.229ZM150.632 43.442C150.074 43.442 149.57 43.55 149.102 43.784C148.652 44 148.238 44.342 147.878 44.774V43.694H145.826V53H147.878V47.402C147.95 46.664 148.202 46.088 148.634 45.692C149.012 45.332 149.462 45.152 149.966 45.152C151.37 45.152 152.072 45.908 152.072 47.438V53H154.124V47.258C154.124 44.702 152.954 43.442 150.632 43.442ZM160.155 43.442C158.895 43.442 157.869 43.874 157.095 44.738C156.303 45.602 155.925 46.736 155.925 48.14C155.925 49.544 156.303 50.678 157.095 51.524C157.869 52.352 158.895 52.784 160.155 52.784C161.307 52.784 162.225 52.298 162.909 51.344V52.712C162.909 54.368 162.135 55.196 160.587 55.196C159.867 55.196 159.345 55.088 159.021 54.89C158.679 54.674 158.463 54.314 158.355 53.792H156.303C156.483 54.836 156.915 55.592 157.599 56.096C158.283 56.564 159.273 56.816 160.587 56.816C163.503 56.816 164.961 55.34 164.961 52.406V43.694H162.909V44.828C162.225 43.892 161.307 43.442 160.155 43.442ZM160.479 45.098C161.253 45.098 161.865 45.368 162.297 45.908C162.711 46.448 162.927 47.186 162.927 48.14C162.927 49.076 162.711 49.796 162.297 50.336C161.865 50.84 161.253 51.11 160.461 51.11C159.561 51.11 158.931 50.804 158.535 50.21C158.193 49.706 158.031 49.022 158.031 48.14C158.031 47.168 158.247 46.43 158.679 45.908C159.111 45.368 159.705 45.098 160.479 45.098ZM167.293 40.148V53H169.399V47.312H175.681V45.512H169.399V41.948H176.059V40.148H167.293ZM181.82 43.442C180.596 43.442 179.624 43.658 178.922 44.126C178.112 44.648 177.644 45.476 177.5 46.592H179.534C179.606 46.07 179.84 45.692 180.236 45.44C180.596 45.206 181.064 45.098 181.676 45.098C183.008 45.098 183.674 45.692 183.674 46.916V47.132L181.64 47.15C180.38 47.15 179.354 47.402 178.598 47.888C177.68 48.464 177.23 49.328 177.23 50.498C177.23 51.344 177.518 52.01 178.094 52.514C178.652 53 179.408 53.252 180.38 53.252C181.172 53.252 181.874 53.108 182.468 52.856C183.008 52.604 183.458 52.244 183.818 51.776V53H185.726V47.06C185.726 45.926 185.438 45.062 184.862 44.468C184.214 43.784 183.188 43.442 181.82 43.442ZM183.674 48.698V49.076C183.674 49.868 183.422 50.48 182.918 50.948C182.396 51.398 181.712 51.632 180.848 51.632C180.344 51.632 179.966 51.506 179.714 51.29C179.462 51.056 179.336 50.768 179.336 50.444C179.336 49.292 180.146 48.716 181.784 48.716L183.674 48.698ZM192.697 43.442C192.139 43.442 191.635 43.55 191.167 43.784C190.717 44 190.303 44.342 189.943 44.774V43.694H187.891V53H189.943V47.402C190.015 46.664 190.267 46.088 190.699 45.692C191.077 45.332 191.527 45.152 192.031 45.152C193.435 45.152 194.137 45.908 194.137 47.438V53H196.189V47.258C196.189 44.702 195.019 43.442 192.697 43.442ZM202.22 43.442C200.96 43.442 199.934 43.874 199.16 44.738C198.368 45.602 197.99 46.736 197.99 48.14C197.99 49.544 198.368 50.678 199.16 51.524C199.934 52.352 200.96 52.784 202.22 52.784C203.372 52.784 204.29 52.298 204.974 51.344V52.712C204.974 54.368 204.2 55.196 202.652 55.196C201.932 55.196 201.41 55.088 201.086 54.89C200.744 54.674 200.528 54.314 200.42 53.792H198.368C198.548 54.836 198.98 55.592 199.664 56.096C200.348 56.564 201.338 56.816 202.652 56.816C205.568 56.816 207.026 55.34 207.026 52.406V43.694H204.974V44.828C204.29 43.892 203.372 43.442 202.22 43.442ZM202.544 45.098C203.318 45.098 203.93 45.368 204.362 45.908C204.776 46.448 204.992 47.186 204.992 48.14C204.992 49.076 204.776 49.796 204.362 50.336C203.93 50.84 203.318 51.11 202.526 51.11C201.626 51.11 200.996 50.804 200.6 50.21C200.258 49.706 200.096 49.022 200.096 48.14C200.096 47.168 200.312 46.43 200.744 45.908C201.176 45.368 201.77 45.098 202.544 45.098ZM214.362 40.148V41.948H218.574V53H220.68V41.948H224.892V40.148H214.362ZM232.006 39.896C229.954 39.896 228.388 40.562 227.308 41.93C226.354 43.118 225.886 44.684 225.886 46.592C225.886 48.536 226.336 50.084 227.254 51.236C228.298 52.568 229.9 53.252 232.042 53.252C233.428 53.252 234.616 52.856 235.606 52.064C236.668 51.218 237.334 50.048 237.622 48.536H235.57C235.318 49.508 234.886 50.246 234.274 50.732C233.698 51.164 232.942 51.398 232.024 51.398C230.62 51.398 229.576 50.948 228.91 50.084C228.298 49.274 227.992 48.104 227.992 46.592C227.992 45.116 228.298 43.964 228.928 43.136C229.612 42.2 230.62 41.75 231.97 41.75C232.87 41.75 233.608 41.93 234.184 42.326C234.778 42.722 235.174 43.334 235.39 44.18H237.442C237.244 42.884 236.686 41.84 235.75 41.084C234.778 40.292 233.518 39.896 232.006 39.896Z" fill="black"/>
<path d="M51.008 70.004V80H52.156V75.912H55.082C57.378 75.912 58.54 74.918 58.54 72.944C58.54 70.984 57.392 70.004 55.096 70.004H51.008ZM52.156 70.998H55.026C55.824 70.998 56.412 71.152 56.804 71.488C57.196 71.782 57.392 72.272 57.392 72.944C57.392 73.616 57.196 74.106 56.818 74.428C56.426 74.75 55.838 74.918 55.026 74.918H52.156V70.998ZM60.0744 69.808V80H61.1804V69.808H60.0744ZM66.1273 72.566C65.0773 72.566 64.2513 72.944 63.6353 73.7C63.0193 74.414 62.7253 75.31 62.7253 76.374C62.7253 77.55 63.0333 78.474 63.6773 79.174C64.2933 79.846 65.1333 80.196 66.1693 80.196C67.1073 80.196 67.8773 79.916 68.4793 79.384C68.9693 78.936 69.2913 78.376 69.4593 77.676H68.3393C68.1573 78.18 67.9193 78.558 67.6113 78.81C67.2473 79.104 66.7573 79.258 66.1693 79.258C65.4833 79.258 64.9373 79.034 64.5453 78.586C64.1533 78.138 63.9433 77.508 63.8873 76.696H69.5993C69.5713 75.436 69.2913 74.442 68.7593 73.742C68.1713 72.958 67.2893 72.566 66.1273 72.566ZM66.1553 73.504C67.5273 73.504 68.2973 74.274 68.4373 75.828H63.9153C63.9853 75.114 64.2093 74.554 64.6013 74.134C64.9933 73.714 65.5113 73.504 66.1553 73.504ZM74.061 72.566C73.151 72.566 72.437 72.748 71.905 73.126C71.303 73.532 70.953 74.148 70.841 74.974H71.947C72.031 74.47 72.255 74.106 72.619 73.854C72.955 73.602 73.417 73.49 73.991 73.49C75.251 73.49 75.881 74.092 75.881 75.31V75.548L74.145 75.562C73.137 75.562 72.325 75.744 71.737 76.094C70.995 76.514 70.631 77.186 70.631 78.11C70.631 78.754 70.855 79.258 71.303 79.636C71.723 80 72.311 80.196 73.039 80.196C73.697 80.196 74.299 80.042 74.831 79.762C75.293 79.51 75.671 79.174 75.951 78.782V80H77.001V75.352C77.001 74.512 76.777 73.854 76.357 73.378C75.853 72.832 75.097 72.566 74.061 72.566ZM75.881 76.43V77.06C75.881 77.648 75.629 78.166 75.139 78.614C74.621 79.062 74.005 79.286 73.277 79.286C72.801 79.286 72.437 79.174 72.171 78.964C71.905 78.74 71.779 78.446 71.779 78.096C71.779 77.004 72.591 76.444 74.215 76.444L75.881 76.43ZM81.2933 72.566C80.4813 72.566 79.8093 72.748 79.3053 73.112C78.7593 73.476 78.4933 73.952 78.4933 74.568C78.4933 75.184 78.7593 75.646 79.3193 75.982C79.6553 76.206 80.2573 76.416 81.1113 76.626C81.8953 76.822 82.4133 76.976 82.6513 77.088C83.0993 77.312 83.3373 77.62 83.3373 78.026C83.3373 78.838 82.6793 79.258 81.3913 79.258C80.7753 79.258 80.3133 79.146 80.0053 78.922C79.6973 78.67 79.4873 78.264 79.4033 77.69H78.3113C78.4793 79.356 79.5153 80.196 81.4193 80.196C83.4633 80.196 84.4853 79.44 84.4853 77.956C84.4853 77.326 84.1913 76.836 83.6173 76.472C83.2393 76.234 82.6233 76.01 81.7553 75.8C81.0273 75.604 80.5233 75.45 80.2573 75.324C79.8373 75.114 79.6413 74.848 79.6413 74.54C79.6413 74.218 79.7953 73.966 80.1033 73.784C80.3833 73.588 80.7753 73.504 81.2793 73.504C81.8533 73.504 82.3013 73.616 82.6093 73.84C82.8893 74.036 83.0713 74.372 83.1693 74.82H84.2613C84.0653 73.308 83.0853 72.566 81.2933 72.566ZM86.7236 70.032C86.4856 70.032 86.2896 70.102 86.1216 70.27C85.9536 70.41 85.8836 70.606 85.8836 70.858C85.8836 71.096 85.9536 71.292 86.1216 71.46C86.2896 71.614 86.4856 71.698 86.7236 71.698C86.9616 71.698 87.1576 71.614 87.3256 71.46C87.4936 71.292 87.5776 71.096 87.5776 70.858C87.5776 70.606 87.4936 70.41 87.3256 70.27C87.1576 70.102 86.9616 70.032 86.7236 70.032ZM86.1636 72.762V80H87.2836V72.762H86.1636ZM92.7697 72.566C92.2937 72.566 91.8597 72.678 91.4677 72.902C91.0757 73.112 90.7537 73.42 90.5017 73.826V72.762H89.3817V80H90.5017V75.632C90.5437 74.974 90.7537 74.456 91.1457 74.064C91.5097 73.7 91.9437 73.518 92.4477 73.518C93.7077 73.518 94.3517 74.218 94.3517 75.632V80H95.4717V75.548C95.4717 73.56 94.5617 72.566 92.7697 72.566ZM100.184 72.566C99.176 72.566 98.378 72.916 97.79 73.63C97.202 74.302 96.922 75.156 96.922 76.22C96.922 77.27 97.202 78.124 97.79 78.796C98.378 79.482 99.176 79.832 100.184 79.832C101.276 79.832 102.088 79.342 102.62 78.376V79.65C102.62 81.246 101.892 82.058 100.436 82.058C99.778 82.058 99.288 81.932 98.966 81.694C98.644 81.47 98.434 81.106 98.35 80.616H97.23C97.356 81.4 97.678 81.988 98.196 82.38C98.7 82.772 99.456 82.968 100.436 82.968C102.634 82.968 103.74 81.806 103.74 79.496V72.762H102.62V74.008C102.088 73.042 101.276 72.566 100.184 72.566ZM100.352 73.49C101.066 73.49 101.626 73.742 102.046 74.274C102.438 74.75 102.634 75.408 102.634 76.22C102.634 77.004 102.438 77.648 102.046 78.138C101.626 78.642 101.066 78.894 100.338 78.894C99.554 78.894 98.98 78.614 98.588 78.082C98.238 77.606 98.07 76.976 98.07 76.22C98.07 75.408 98.266 74.75 98.658 74.274C99.064 73.742 99.624 73.49 100.352 73.49ZM106.397 78.348C106.145 78.348 105.949 78.418 105.781 78.572C105.627 78.712 105.557 78.922 105.557 79.188C105.557 79.426 105.627 79.622 105.795 79.776C105.949 79.916 106.145 80 106.397 80C106.481 80 106.565 79.986 106.635 79.972C106.579 80.7 106.173 81.302 105.445 81.778L105.823 82.38C106.873 81.806 107.405 80.91 107.405 79.706C107.405 78.796 107.069 78.348 106.397 78.348ZM113.029 72.762L115.493 80H116.543L118.251 74.176L119.931 80H120.995L123.459 72.762H122.227L120.449 78.628L118.769 72.762H117.719L116.039 78.628L114.261 72.762H113.029ZM127.545 72.566C126.635 72.566 125.921 72.748 125.389 73.126C124.787 73.532 124.437 74.148 124.325 74.974H125.431C125.515 74.47 125.739 74.106 126.103 73.854C126.439 73.602 126.901 73.49 127.475 73.49C128.735 73.49 129.365 74.092 129.365 75.31V75.548L127.629 75.562C126.621 75.562 125.809 75.744 125.221 76.094C124.479 76.514 124.115 77.186 124.115 78.11C124.115 78.754 124.339 79.258 124.787 79.636C125.207 80 125.795 80.196 126.523 80.196C127.181 80.196 127.783 80.042 128.315 79.762C128.777 79.51 129.155 79.174 129.435 78.782V80H130.485V75.352C130.485 74.512 130.261 73.854 129.841 73.378C129.337 72.832 128.581 72.566 127.545 72.566ZM129.365 76.43V77.06C129.365 77.648 129.113 78.166 128.623 78.614C128.105 79.062 127.489 79.286 126.761 79.286C126.285 79.286 125.921 79.174 125.655 78.964C125.389 78.74 125.263 78.446 125.263 78.096C125.263 77.004 126.075 76.444 127.699 76.444L129.365 76.43ZM135.394 72.566C134.89 72.566 134.456 72.72 134.078 73.028C133.77 73.266 133.518 73.602 133.322 74.022V72.762H132.216V80H133.322V76.164C133.322 75.492 133.504 74.918 133.896 74.442C134.274 73.938 134.75 73.7 135.31 73.7C135.66 73.7 136.024 73.742 136.388 73.854V72.734C136.122 72.622 135.786 72.566 135.394 72.566ZM140.493 72.566C139.681 72.566 138.995 72.944 138.449 73.728V72.762H137.329V80H138.449V75.59C138.449 75.016 138.617 74.526 138.953 74.134C139.289 73.714 139.709 73.518 140.227 73.518C141.333 73.518 141.893 74.148 141.893 75.436V80H143.013V75.464C143.013 74.876 143.167 74.414 143.503 74.05C143.811 73.686 144.217 73.518 144.693 73.518C145.309 73.518 145.757 73.672 146.037 74.008C146.303 74.316 146.443 74.792 146.443 75.436V80H147.563V75.254C147.563 74.428 147.325 73.77 146.877 73.28C146.401 72.804 145.799 72.566 145.043 72.566C144.539 72.566 144.119 72.678 143.769 72.902C143.377 73.112 143.041 73.462 142.761 73.938C142.355 73.014 141.599 72.566 140.493 72.566ZM150.23 78.348C149.978 78.348 149.782 78.418 149.614 78.572C149.46 78.712 149.39 78.922 149.39 79.188C149.39 79.426 149.46 79.622 149.628 79.776C149.782 79.916 149.978 80 150.23 80C150.314 80 150.398 79.986 150.468 79.972C150.412 80.7 150.006 81.302 149.278 81.778L149.656 82.38C150.706 81.806 151.238 80.91 151.238 79.706C151.238 78.796 150.902 78.348 150.23 78.348ZM156.861 72.762L159.731 79.832L158.485 82.772H159.703L163.665 72.762H162.433L160.291 78.474L158.079 72.762H156.861ZM167.586 72.566C166.536 72.566 165.71 72.944 165.094 73.7C164.478 74.414 164.184 75.31 164.184 76.374C164.184 77.55 164.492 78.474 165.136 79.174C165.752 79.846 166.592 80.196 167.628 80.196C168.566 80.196 169.336 79.916 169.938 79.384C170.428 78.936 170.75 78.376 170.918 77.676H169.798C169.616 78.18 169.378 78.558 169.07 78.81C168.706 79.104 168.216 79.258 167.628 79.258C166.942 79.258 166.396 79.034 166.004 78.586C165.612 78.138 165.402 77.508 165.346 76.696H171.058C171.03 75.436 170.75 74.442 170.218 73.742C169.63 72.958 168.748 72.566 167.586 72.566ZM167.614 73.504C168.986 73.504 169.756 74.274 169.896 75.828H165.374C165.444 75.114 165.668 74.554 166.06 74.134C166.452 73.714 166.97 73.504 167.614 73.504ZM174.302 70.424L173.196 70.886V72.762H171.74V73.7H173.196V78.306C173.196 78.852 173.308 79.258 173.546 79.538C173.798 79.846 174.232 80 174.82 80H175.912V79.062H174.988C174.736 79.062 174.554 78.992 174.456 78.88C174.344 78.768 174.302 78.572 174.302 78.306V73.7H176.094V72.762H174.302V70.424ZM187.357 69.808V74.092C186.797 73.07 185.999 72.566 184.963 72.566C183.927 72.566 183.129 72.944 182.541 73.728C181.995 74.428 181.729 75.296 181.729 76.36C181.729 77.452 181.995 78.348 182.541 79.048C183.129 79.804 183.955 80.196 185.019 80.196C186.111 80.196 186.923 79.734 187.427 78.81V80H188.477V69.808H187.357ZM185.201 73.49C185.845 73.49 186.377 73.742 186.783 74.274C187.175 74.792 187.385 75.478 187.385 76.318V76.458C187.385 77.27 187.203 77.928 186.853 78.432C186.447 78.992 185.887 79.272 185.159 79.272C184.375 79.272 183.787 78.978 183.395 78.418C183.045 77.914 182.877 77.228 182.877 76.36C182.877 75.492 183.045 74.82 183.409 74.33C183.801 73.77 184.403 73.49 185.201 73.49ZM191.136 70.032C190.898 70.032 190.702 70.102 190.534 70.27C190.366 70.41 190.296 70.606 190.296 70.858C190.296 71.096 190.366 71.292 190.534 71.46C190.702 71.614 190.898 71.698 191.136 71.698C191.374 71.698 191.57 71.614 191.738 71.46C191.906 71.292 191.99 71.096 191.99 70.858C191.99 70.606 191.906 70.41 191.738 70.27C191.57 70.102 191.374 70.032 191.136 70.032ZM190.576 72.762V80H191.696V72.762H190.576ZM196.356 72.566C195.544 72.566 194.872 72.748 194.368 73.112C193.822 73.476 193.556 73.952 193.556 74.568C193.556 75.184 193.822 75.646 194.382 75.982C194.718 76.206 195.32 76.416 196.174 76.626C196.958 76.822 197.476 76.976 197.714 77.088C198.162 77.312 198.4 77.62 198.4 78.026C198.4 78.838 197.742 79.258 196.454 79.258C195.838 79.258 195.376 79.146 195.068 78.922C194.76 78.67 194.55 78.264 194.466 77.69H193.374C193.542 79.356 194.578 80.196 196.482 80.196C198.526 80.196 199.548 79.44 199.548 77.956C199.548 77.326 199.254 76.836 198.68 76.472C198.302 76.234 197.686 76.01 196.818 75.8C196.09 75.604 195.586 75.45 195.32 75.324C194.9 75.114 194.704 74.848 194.704 74.54C194.704 74.218 194.858 73.966 195.166 73.784C195.446 73.588 195.838 73.504 196.342 73.504C196.916 73.504 197.364 73.616 197.672 73.84C197.952 74.036 198.134 74.372 198.232 74.82H199.324C199.128 73.308 198.148 72.566 196.356 72.566ZM202.794 70.424L201.688 70.886V72.762H200.232V73.7H201.688V78.306C201.688 78.852 201.8 79.258 202.038 79.538C202.29 79.846 202.724 80 203.312 80H204.404V79.062H203.48C203.228 79.062 203.046 78.992 202.948 78.88C202.836 78.768 202.794 78.572 202.794 78.306V73.7H204.586V72.762H202.794V70.424ZM206.763 70.032C206.525 70.032 206.329 70.102 206.161 70.27C205.993 70.41 205.923 70.606 205.923 70.858C205.923 71.096 205.993 71.292 206.161 71.46C206.329 71.614 206.525 71.698 206.763 71.698C207.001 71.698 207.197 71.614 207.365 71.46C207.533 71.292 207.617 71.096 207.617 70.858C207.617 70.606 207.533 70.41 207.365 70.27C207.197 70.102 207.001 70.032 206.763 70.032ZM206.203 72.762V80H207.323V72.762H206.203ZM212.809 72.566C212.333 72.566 211.899 72.678 211.507 72.902C211.115 73.112 210.793 73.42 210.541 73.826V72.762H209.421V80H210.541V75.632C210.583 74.974 210.793 74.456 211.185 74.064C211.549 73.7 211.983 73.518 212.487 73.518C213.747 73.518 214.391 74.218 214.391 75.632V80H215.511V75.548C215.511 73.56 214.601 72.566 212.809 72.566ZM220.363 72.566C219.285 72.566 218.431 72.944 217.815 73.714C217.241 74.414 216.961 75.31 216.961 76.416C216.961 77.522 217.241 78.418 217.815 79.104C218.417 79.832 219.257 80.196 220.349 80.196C221.245 80.196 221.959 79.958 222.505 79.496C223.065 79.02 223.415 78.306 223.583 77.382H222.463C222.295 78.628 221.581 79.258 220.349 79.258C219.621 79.258 219.061 78.992 218.683 78.488C218.291 77.984 218.109 77.284 218.109 76.402C218.109 75.52 218.305 74.82 218.697 74.302C219.103 73.77 219.663 73.504 220.363 73.504C220.937 73.504 221.399 73.63 221.763 73.91C222.113 74.19 222.337 74.61 222.435 75.17H223.541C223.415 74.288 223.079 73.63 222.519 73.196C221.973 72.776 221.259 72.566 220.363 72.566ZM226.829 70.424L225.723 70.886V72.762H224.267V73.7H225.723V78.306C225.723 78.852 225.835 79.258 226.073 79.538C226.325 79.846 226.759 80 227.347 80H228.439V79.062H227.515C227.263 79.062 227.081 78.992 226.983 78.88C226.871 78.768 226.829 78.572 226.829 78.306V73.7H228.621V72.762H226.829V70.424ZM230.798 70.032C230.56 70.032 230.364 70.102 230.196 70.27C230.028 70.41 229.958 70.606 229.958 70.858C229.958 71.096 230.028 71.292 230.196 71.46C230.364 71.614 230.56 71.698 230.798 71.698C231.036 71.698 231.232 71.614 231.4 71.46C231.568 71.292 231.652 71.096 231.652 70.858C231.652 70.606 231.568 70.41 231.4 70.27C231.232 70.102 231.036 70.032 230.798 70.032ZM230.238 72.762V80H231.358V72.762H230.238ZM232.658 72.762L235.388 80H236.522L239.266 72.762H238.034L235.962 78.6L233.89 72.762H232.658ZM243.192 72.566C242.142 72.566 241.316 72.944 240.7 73.7C240.084 74.414 239.79 75.31 239.79 76.374C239.79 77.55 240.098 78.474 240.742 79.174C241.358 79.846 242.198 80.196 243.234 80.196C244.172 80.196 244.942 79.916 245.544 79.384C246.034 78.936 246.356 78.376 246.524 77.676H245.404C245.222 78.18 244.984 78.558 244.676 78.81C244.312 79.104 243.822 79.258 243.234 79.258C242.548 79.258 242.002 79.034 241.61 78.586C241.218 78.138 241.008 77.508 240.952 76.696H246.664C246.636 75.436 246.356 74.442 245.824 73.742C245.236 72.958 244.354 72.566 243.192 72.566ZM243.22 73.504C244.592 73.504 245.362 74.274 245.502 75.828H240.98C241.05 75.114 241.274 74.554 241.666 74.134C242.058 73.714 242.576 73.504 243.22 73.504ZM248.955 78.334C248.717 78.334 248.521 78.404 248.353 78.572C248.185 78.726 248.101 78.922 248.101 79.16C248.101 79.398 248.185 79.594 248.353 79.762C248.521 79.916 248.717 80 248.955 80C249.179 80 249.389 79.916 249.557 79.762C249.725 79.608 249.809 79.412 249.809 79.16C249.809 78.922 249.725 78.726 249.557 78.572C249.389 78.404 249.193 78.334 248.955 78.334Z" fill="#AAAAAA"/>
<circle cx="82" cy="136" r="32" fill="#F18A63"/>
<circle cx="166" cy="136" r="32" fill="#33A96A"/>
<circle cx="250" cy="136" r="32" fill="#1A1A1B"/>
<circle cx="334" cy="136" r="32" fill="#E0DDDB"/>
<circle cx="418" cy="136" r="32" fill="#F6F2F0"/>
<circle cx="849.5" cy="99.5" r="251" stroke="#E5E5E5"/>
<circle cx="830" cy="100" r="180.5" stroke="#E5E5E5"/>
<circle cx="936.5" cy="99.5" r="124" stroke="#E5E5E5"/>
<path d="M745.086 166.379L745.546 166.183L745.416 165.879H745.086V166.379ZM656.209 166.379V165.879H655.88L655.75 166.181L656.209 166.379ZM645.633 190.871L645.174 190.673L645.173 190.676L645.633 190.871ZM648.973 226.682L649.228 226.251L649.226 226.25L648.973 226.682ZM673.65 231.135H674.15V230.671L673.688 230.636L673.65 231.135ZM673.65 238V238.5H674.15V238H673.65ZM589.969 238H589.469V238.5H589.969V238ZM589.969 231.135L589.894 230.64L589.469 230.704V231.135H589.969ZM612.234 220.002L612.595 220.348L612.599 220.344L612.234 220.002ZM633.758 181.965L633.302 181.76L633.301 181.762L633.758 181.965ZM723.748 -18.7969V-19.2969H723.424L723.292 -19.0014L723.748 -18.7969ZM727.273 -18.7969L727.731 -18.9981L727.6 -19.2969H727.273V-18.7969ZM818.006 187.531L817.548 187.733L817.549 187.734L818.006 187.531ZM839.344 224.455L839.681 224.086L839.68 224.085L839.344 224.455ZM857.156 231.135H857.656V230.673L857.196 230.636L857.156 231.135ZM857.156 238V238.5H857.656V238H857.156ZM735.438 238H734.938V238.5H735.438V238ZM735.438 231.135V230.635H734.938V231.135H735.438ZM761.043 227.053L761.326 227.465L761.337 227.457L761.043 227.053ZM764.012 211.652L763.524 211.761L763.528 211.782L763.535 211.803L764.012 211.652ZM758.445 197.736L758.906 197.541L758.905 197.54L758.445 197.736ZM738.777 152.648V153.148H739.538L739.236 152.45L738.777 152.648ZM701.297 65.998L701.756 65.7995L701.304 64.7541L700.84 65.7946L701.297 65.998ZM662.703 152.648L662.246 152.445L661.933 153.148H662.703V152.648ZM745.086 165.879H656.209V166.879H745.086V165.879ZM655.75 166.181L645.174 190.673L646.092 191.069L656.668 166.577L655.75 166.181ZM645.173 190.676C641.698 198.866 639.938 205.679 639.938 211.096H640.938C640.938 205.874 642.641 199.204 646.093 191.066L645.173 190.676ZM639.938 211.096C639.938 218.309 642.864 223.676 648.72 227.113L649.226 226.25C643.701 223.008 640.938 217.984 640.938 211.096H639.938ZM648.718 227.112C650.47 228.15 653.438 229.028 657.558 229.771C661.695 230.518 667.048 231.138 673.613 231.633L673.688 230.636C667.141 230.142 661.825 229.525 657.736 228.787C653.63 228.046 650.815 227.192 649.228 226.251L648.718 227.112ZM673.15 231.135V238H674.15V231.135H673.15ZM673.65 237.5H589.969V238.5H673.65V237.5ZM590.469 238V231.135H589.469V238H590.469ZM590.043 231.629C599.172 230.254 606.698 226.496 612.595 220.348L611.874 219.656C606.143 225.63 598.825 229.295 589.894 230.64L590.043 231.629ZM612.599 220.344C618.477 214.091 625.681 201.339 634.215 182.168L633.301 181.762C624.765 200.937 617.619 213.543 611.87 219.659L612.599 220.344ZM634.214 182.169L724.204 -18.5924L723.292 -19.0014L633.302 181.76L634.214 182.169ZM723.748 -18.2969H727.273V-19.2969H723.748V-18.2969ZM726.816 -18.5956L817.548 187.733L818.464 187.33L727.731 -18.9981L726.816 -18.5956ZM817.549 187.734C821.882 197.515 825.833 205.496 829.402 211.671C832.965 217.837 836.166 222.236 839.007 224.825L839.68 224.085C836.955 221.603 833.817 217.312 830.267 211.17C826.723 205.037 822.788 197.092 818.463 187.329L817.549 187.734ZM839.007 224.825C843.319 228.756 849.375 231.009 857.116 231.633L857.196 230.636C849.599 230.024 843.78 227.823 839.681 224.086L839.007 224.825ZM856.656 231.135V238H857.656V231.135H856.656ZM857.156 237.5H735.438V238.5H857.156V237.5ZM735.938 238V231.135H734.938V238H735.938ZM735.438 231.635H740.447V230.635H735.438V231.635ZM740.447 231.635C750.235 231.635 757.234 230.278 761.326 227.465L760.76 226.641C756.935 229.27 750.204 230.635 740.447 230.635V231.635ZM761.337 227.457C764.202 225.373 765.625 222.369 765.625 218.518H764.625C764.625 222.088 763.326 224.774 760.749 226.648L761.337 227.457ZM765.625 218.518C765.625 216.235 765.244 213.896 764.489 211.502L763.535 211.803C764.263 214.11 764.625 216.347 764.625 218.518H765.625ZM764.5 211.544C764.365 210.938 763.82 209.456 762.899 207.153C761.969 204.829 760.638 201.624 758.906 197.541L757.985 197.932C759.716 202.012 761.044 205.209 761.97 207.524C762.905 209.86 763.411 211.253 763.524 211.761L764.5 211.544ZM758.905 197.54L745.546 166.183L744.626 166.575L757.985 197.932L758.905 197.54ZM739.236 152.45L701.756 65.7995L700.838 66.1965L738.318 152.847L739.236 152.45ZM700.84 65.7946L662.246 152.445L663.16 152.852L701.754 66.2015L700.84 65.7946ZM662.703 153.148H738.777V152.148H662.703V153.148ZM970.154 212.395L970.65 212.329L970.527 211.398L969.823 212.02L970.154 212.395ZM888.514 230.764L888.16 231.117L888.164 231.121L888.514 230.764ZM895.75 170.646L896.089 171.014L896.091 171.012L895.75 170.646ZM970.154 128.342L970.363 128.796L970.654 128.662V128.342H970.154ZM967.928 86.2227L967.462 86.4055L967.466 86.4157L967.471 86.4257L967.928 86.2227ZM959.949 77.3164L959.675 77.7345L959.684 77.7404L959.949 77.3164ZM926.736 78.8008L926.452 78.3893L926.452 78.3897L926.736 78.8008ZM927.107 96.2422L927.482 95.9111L927.478 95.907L927.107 96.2422ZM927.293 127.229L927.636 127.592L927.637 127.592L927.293 127.229ZM889.998 126.486L889.663 126.857L889.667 126.861L889.998 126.486ZM892.781 84.5527L893.157 84.8824L893.16 84.8795L892.781 84.5527ZM1000.58 69.8945L1000.29 70.2964L1000.29 70.3007L1000.58 69.8945ZM1019.32 92.5312L1019.8 92.3731L1019.8 92.3667L1019.32 92.5312ZM1022.85 210.725L1022.37 210.866L1022.37 210.874L1022.85 210.725ZM1025.63 215.178L1025.32 215.568L1025.63 215.178ZM1039.73 209.797L1040.05 209.406L1039.64 209.08L1039.33 209.502L1039.73 209.797ZM1045.3 214.25L1045.72 214.53L1045.97 214.148L1045.61 213.86L1045.3 214.25ZM1026 234.289L1026.27 234.714L1026.27 234.712L1026 234.289ZM980.359 233.547L980.037 233.929L980.042 233.933L980.359 233.547ZM970.154 198.85L970.478 199.231L970.654 199.081V198.85H970.154ZM970.154 140.773H970.654V139.9L969.901 140.342L970.154 140.773ZM936.756 168.977L936.352 168.682L936.351 168.684L936.756 168.977ZM935.643 204.23L936.009 203.891L936.006 203.887L935.643 204.23ZM969.823 212.02C948.705 230.668 929.833 239.912 913.191 239.912V240.912C930.196 240.912 949.299 231.478 970.485 212.769L969.823 212.02ZM913.191 239.912C903.415 239.912 895.319 236.74 888.864 230.407L888.164 231.121C894.821 237.652 903.176 240.912 913.191 240.912V239.912ZM888.867 230.41C882.41 223.953 879.18 215.919 879.18 206.271H878.18C878.18 216.168 881.505 224.462 888.16 231.117L888.867 230.41ZM879.18 206.271C879.18 193.199 884.792 181.451 896.089 171.014L895.411 170.279C883.947 180.871 878.18 192.872 878.18 206.271H879.18ZM896.091 171.012C907.404 160.437 932.133 146.365 970.363 128.796L969.946 127.887C931.73 145.449 906.856 159.58 895.409 170.281L896.091 171.012ZM970.654 128.342V110.9H969.654V128.342H970.654ZM970.654 110.9C970.654 104.337 970.469 98.986 970.096 94.852C969.724 90.7358 969.163 87.7714 968.385 86.0196L967.471 86.4257C968.177 88.0137 968.729 90.8323 969.1 94.9419C969.469 99.0339 969.654 104.352 969.654 110.9H970.654ZM968.393 86.0398C966.984 82.4535 964.24 79.4086 960.214 76.8924L959.684 77.7404C963.575 80.1722 966.15 83.0647 967.462 86.4055L968.393 86.0398ZM960.224 76.8984C956.18 74.2448 951.631 72.9199 946.59 72.9199V73.9199C951.445 73.9199 955.802 75.1927 959.675 77.7344L960.224 76.8984ZM946.59 72.9199C938.476 72.9199 931.751 74.7305 926.452 78.3893L927.02 79.2122C932.112 75.6966 938.623 73.9199 946.59 73.9199V72.9199ZM926.452 78.3897C923.148 80.6769 921.412 83.4107 921.412 86.5938H922.412C922.412 83.8393 923.892 81.3778 927.021 79.2119L926.452 78.3897ZM921.412 86.5938C921.412 89.3906 923.26 92.7288 926.736 96.5773L927.478 95.907C924.027 92.0863 922.412 88.9922 922.412 86.5938H921.412ZM926.733 96.5733C931.387 101.84 933.658 106.86 933.658 111.643H934.658C934.658 106.529 932.229 101.282 927.482 95.9111L926.733 96.5733ZM933.658 111.643C933.658 117.56 931.431 122.626 926.949 126.865L927.637 127.592C932.309 123.172 934.658 117.847 934.658 111.643H933.658ZM926.95 126.865C922.607 130.967 916.863 133.037 909.666 133.037V134.037C917.066 134.037 923.073 131.902 927.636 127.592L926.95 126.865ZM909.666 133.037C901.982 133.037 895.548 130.723 890.329 126.112L889.667 126.861C895.087 131.65 901.764 134.037 909.666 134.037V133.037ZM890.334 126.116C885.23 121.498 882.705 116.123 882.705 109.973H881.705C881.705 116.439 884.375 122.073 889.663 126.857L890.334 126.116ZM882.705 109.973C882.705 101.211 886.17 92.8508 893.157 84.8824L892.405 84.2231C885.291 92.3354 881.705 100.922 881.705 109.973H882.705ZM893.16 84.8795C900.14 76.7966 909.892 70.5929 922.445 66.2854L922.121 65.3396C909.44 69.691 899.524 75.9807 892.403 84.2259L893.16 84.8795ZM922.445 66.2854C935.009 61.9743 948.066 59.8184 961.619 59.8184V58.8184C947.958 58.8184 934.791 60.9919 922.121 65.3396L922.445 66.2854ZM961.619 59.8184C978.004 59.8184 990.876 63.3299 1000.29 70.2964L1000.88 69.4927C991.243 62.3576 978.137 58.8184 961.619 58.8184V59.8184ZM1000.29 70.3007C1009.89 77.1896 1016.05 84.6592 1018.85 92.6958L1019.8 92.3667C1016.91 84.0752 1010.58 76.4536 1000.88 69.4884L1000.29 70.3007ZM1018.85 92.6894C1019.69 95.2234 1020.34 99.4526 1020.77 105.417C1021.21 111.368 1021.42 119.009 1021.42 128.342H1022.42C1022.42 118.996 1022.21 111.329 1021.77 105.344C1021.34 99.3713 1020.69 95.0344 1019.8 92.3731L1018.85 92.6894ZM1021.42 128.342V195.695H1022.42V128.342H1021.42ZM1021.42 195.695C1021.42 199.659 1021.5 202.902 1021.65 205.421C1021.81 207.928 1022.04 209.756 1022.37 210.866L1023.33 210.584C1023.04 209.591 1022.81 207.862 1022.65 205.359C1022.5 202.869 1022.42 199.648 1022.42 195.695H1021.42ZM1022.37 210.874C1023.01 212.919 1023.98 214.5 1025.32 215.568L1025.95 214.787C1024.81 213.877 1023.92 212.489 1023.33 210.575L1022.37 210.874ZM1025.32 215.568C1026.65 216.63 1028.18 217.162 1029.9 217.162V216.162C1028.4 216.162 1027.09 215.705 1025.95 214.787L1025.32 215.568ZM1029.9 217.162C1033.37 217.162 1036.77 214.702 1040.14 210.092L1039.33 209.502C1036.02 214.045 1032.87 216.162 1029.9 216.162V217.162ZM1039.42 210.187L1044.99 214.64L1045.61 213.86L1040.05 209.406L1039.42 210.187ZM1044.89 213.97C1038.73 223.088 1032.34 229.709 1025.74 233.866L1026.27 234.712C1033.03 230.458 1039.51 223.72 1045.72 214.53L1044.89 213.97ZM1025.74 233.865C1019.27 237.893 1011.88 239.912 1003.55 239.912V240.912C1012.05 240.912 1019.63 238.849 1026.27 234.714L1025.74 233.865ZM1003.55 239.912C993.73 239.912 986.126 237.641 980.677 233.161L980.042 233.933C985.726 238.607 993.584 240.912 1003.55 240.912V239.912ZM980.682 233.165C975.237 228.567 971.876 221.645 970.65 212.329L969.659 212.46C970.907 221.946 974.349 229.126 980.037 233.929L980.682 233.165ZM970.654 198.85V140.773H969.654V198.85H970.654ZM969.901 140.342C954.897 149.147 943.703 158.59 936.352 168.682L937.16 169.271C944.405 159.324 955.477 149.965 970.407 141.205L969.901 140.342ZM936.351 168.684C931.478 175.43 929.02 182.272 929.02 189.201H930.02C930.02 182.523 932.385 175.882 937.161 169.269L936.351 168.684ZM929.02 189.201C929.02 195.025 931.114 200.156 935.279 204.573L936.006 203.887C932.007 199.646 930.02 194.757 930.02 189.201H929.02ZM935.276 204.57C938.483 208.034 942.959 209.74 948.631 209.74V208.74C943.17 208.74 938.987 207.106 936.009 203.891L935.276 204.57ZM948.631 209.74C954.994 209.74 962.283 206.184 970.478 199.231L969.831 198.468C961.697 205.37 954.637 208.74 948.631 208.74V209.74Z" fill="#E5E5E5"/>
</g>
<defs>
<clipPath id="clip0">
<rect width="1080" height="200" fill="white"/>
</clipPath>
</defs>
</svg>
