<?xml version="1.0" standalone="no"?>
<!DOCTYPE svg PUBLIC "-//W3C//DTD SVG 20010904//EN"
 "http://www.w3.org/TR/2001/REC-SVG-20010904/DTD/svg10.dtd">
<svg version="1.0" xmlns="http://www.w3.org/2000/svg"
 width="700.000000pt" height="700.000000pt" viewBox="0 0 700.000000 700.000000"
 preserveAspectRatio="xMidYMid meet">
<metadata>
Created by potrace 1.11, written by Peter Selinger 2001-2013
</metadata>
<g transform="translate(0.000000,700.000000) scale(0.100000,-0.100000)"
fill="#000000" stroke="none">
<path d="M3278 6995 c-2 -1 -37 -5 -78 -9 -97 -8 -222 -23 -285 -36 -27 -5
-61 -12 -75 -14 -209 -38 -523 -132 -677 -202 -28 -13 -54 -24 -57 -24 -2 0
-58 -26 -123 -57 -932 -447 -1625 -1295 -1877 -2298 -21 -84 -32 -138 -61
-295 -2 -14 -8 -58 -20 -150 -27 -206 -27 -673 -1 -817 2 -10 7 -45 11 -78 4
-32 9 -68 11 -80 2 -11 9 -47 15 -80 97 -541 355 -1103 708 -1542 433 -538
1006 -933 1660 -1144 69 -22 133 -42 141 -44 8 -2 62 -15 120 -28 107 -26 244
-52 315 -62 22 -2 56 -7 75 -10 196 -28 643 -27 854 2 34 4 196 32 341 59 55
11 329 92 425 128 271 98 552 243 785 404 72 50 252 187 265 201 3 3 23 21 45
40 71 60 235 222 319 315 270 301 496 671 649 1061 58 150 135 408 162 545 52
268 67 409 70 675 1 132 -1 276 -5 320 -13 130 -21 202 -25 227 -3 13 -8 43
-11 68 -3 25 -9 61 -14 80 -5 19 -12 51 -15 70 -12 72 -65 269 -100 375 -212
633 -580 1172 -1095 1603 -71 59 -334 252 -345 252 -2 0 -35 20 -72 44 -77 50
-306 169 -403 211 -36 15 -74 31 -85 36 -149 64 -421 148 -600 184 -44 9 -89
19 -100 21 -11 2 -45 7 -75 10 -30 3 -58 8 -61 9 -3 2 -35 7 -71 10 -35 4 -78
9 -94 11 -33 5 -540 14 -546 9z m1287 -2480 l1015 -1015 -1019 -1019 -1018
-1018 -227 226 c-124 124 -229 230 -233 234 -4 4 269 284 606 621 l614 614
-1409 1 c-775 0 -1424 0 -1441 0 l-33 1 0 340 0 340 28 1 c15 0 663 1 1441 1
l1413 1 -613 613 -614 614 230 230 c126 126 233 230 237 230 5 0 465 -457
1023 -1015z"/>
</g>
</svg>
