<?xml version="1.0" encoding="utf-8"?>
<!-- Generator: Adobe Illustrator 25.0.1, SVG Export Plug-In . SVG Version: 6.00 Build 0)  -->
<svg version="1.1" id="Layer_1" xmlns="http://www.w3.org/2000/svg" xmlns:xlink="http://www.w3.org/1999/xlink" x="0px" y="0px"
	 viewBox="0 0 53 33" style="enable-background:new 0 0 53 33;" xml:space="preserve">
<style type="text/css">
	.st0{fill:#FFFFFF;stroke:#FFFFFF;}
	.st1{fill:#667EFF;stroke:#667EFF;}
</style>
<path class="st0" d="M0,16.3C0,5.6,7.7,0.8,15.5,0.8s15.4,4.8,15.4,15.5c0,10.9-7.6,15.7-15.4,15.7C7.7,31.9,0,27.2,0,16.3z
	 M23,16.3c0-5.6-3.2-9-7.6-9s-7.5,3.3-7.5,9s3.2,9,7.6,9C20,25.3,23,22,23,16.3z"/>
<path class="st1" d="M34.1,20.2v-7.6c0-0.6,0.2-1.1,0.7-1.4l16-9.9c0.8-0.5,1.7,0.3,1.7,1.4v4.5c0,0.6-0.2,1.1-0.7,1.4L41.7,15
	c-0.9,0.5-0.9,2.3,0,2.8l10.1,6.4c0.4,0.2,0.7,0.8,0.7,1.4v4.5c0,1.1-0.9,1.9-1.7,1.4l-16-9.9C34.4,21.3,34.1,20.8,34.1,20.2z"/>
</svg>
