<?xml version="1.0" encoding="utf-8"?>
<!-- Generator: Adobe Illustrator 25.0.1, SVG Export Plug-In . SVG Version: 6.00 Build 0)  -->
<svg version="1.1" id="Layer_1" shape-rendering="geometricPrecision" xmlns="http://www.w3.org/2000/svg" xmlns:xlink="http://www.w3.org/1999/xlink" x="0px" y="0px"
	 viewBox="0 0 555 337" style="enable-background:new 0 0 555 337;" xml:space="preserve">
<style type="text/css">
	.st0{fill:#667EFF;}
</style>
<g>
	<path class="st0" d="M541.7,4.1c2.4,0,4.7,1,6.6,2.6c3.3,2.9,5.7,7.9,5.7,13.9v48.4c0,6.3-2.5,12-6.9,15.1l-109.1,68.4c0,0,0,0,0,0
		c-5,3-7.5,9.4-7.5,15.6c0,6.2,2.5,12.6,7.5,15.6c0,0,0,0,0,0l109.1,69.1l0,0l0,0c4.3,2.5,6.8,8.1,6.8,15.1v48.4
		c0,6-2.4,11-5.7,13.9c-2,1.7-4.2,2.6-6.6,2.6c-1.7,0-3.3-0.5-5-1.5L364.4,224.2c-4.4-3.1-7.5-8.8-7.5-15.1v-82
		c0-6.3,2.5-12,6.9-15.1l173-106.5C538.4,4.6,540.1,4.1,541.7,4.1 M541.7,3.1L541.7,3.1c-1.9,0-3.8,0.5-5.5,1.6l-173,106.5l0,0l0,0
		c-4.6,3.3-7.3,9.2-7.3,15.9v82c0,6.3,3,12.4,7.9,15.9l0,0l0,0l172.4,107.2c1.8,1.1,3.6,1.6,5.5,1.6c2.6,0,5.1-1,7.3-2.9
		c3.8-3.3,6.1-8.8,6.1-14.7v-48.4c0-7.3-2.7-13.3-7.4-15.9l0,0l-109-69l0,0l-0.1-0.1l0,0l0,0c-4.3-2.6-7-8.2-7-14.7
		c0-6.5,2.7-12.1,7-14.7l0,0l0,0L547.7,85l0,0l0,0c4.6-3.3,7.3-9.2,7.3-15.9V20.7c0-5.9-2.3-11.4-6.1-14.7
		C546.8,4.1,544.3,3.1,541.7,3.1L541.7,3.1z"/>
</g>
<g>
	<path class="st0" d="M167.2,29.3c34.7,0,69.1,10.7,94.8,33.3c25.7,22.6,42.8,57.3,42.8,105.3c0,48.6-16.9,83.5-42.6,106.3
		c-25.7,22.8-60,33.5-95,33.5c-35-0.3-69.5-10.9-95.3-33.7C46.1,251.3,29,216.5,29,168c0-48,17.1-82.7,42.9-105.3
		C97.7,40,132.2,29.3,167.2,29.3 M167.2,249.1L167.2,249.1c20.2-0.3,37.1-7.9,49.1-21.9c11.9-13.9,18.8-34.1,18.8-59.3
		c0-25.2-7.1-45.4-19.2-59.2c-12.1-13.9-29.2-21.4-49.1-21.4c-19.9,0-36.9,7.4-48.9,21.2c-12,13.8-19,34-19,59.4
		c0,25.5,7.1,45.8,19.2,59.7C130.2,241.6,147.3,249.1,167.2,249.1 M167.2,28.8c-37.1,0-71,11.9-95.6,33.5
		c-28.1,24.7-43,61.3-43,105.7c0,23.4,4,44.5,11.8,62.9c7.2,17,17.7,31.6,31.2,43.5c24.4,21.5,58.4,33.5,95.6,33.8
		c37.1,0,71-11.9,95.3-33.6c13.4-11.9,23.8-26.6,31-43.6c7.8-18.4,11.7-39.6,11.7-63c0-44.4-14.9-81-43-105.7
		C237.8,40.7,204,28.8,167.2,28.8L167.2,28.8z M167.2,248.6c-19.8,0-36.6-7.4-48.7-21.3C105.9,213,99.3,192.4,99.3,168
		c0-24.5,6.5-44.9,18.8-59.1c11.9-13.8,28.7-21,48.5-21c19.8,0,36.6,7.3,48.7,21.2c12.5,14.3,19.1,34.7,19.1,58.9
		c0,24.3-6.4,44.7-18.6,59C203.9,240.9,187.1,248.4,167.2,248.6L167.2,248.6L167.2,248.6z"/>
</g>
<g>
	<path class="st0" d="M167.2,0.5c41.9,0,83.4,12.9,114.4,40.2c31,27.3,51.6,69.2,51.6,127.1c0,58.6-20.4,100.8-51.4,128.3
		c-31,27.5-72.5,40.4-114.7,40.4c-42.2-0.3-83.9-13.2-115-40.6c-31.1-27.4-51.7-69.4-51.7-128c0-58,20.6-99.8,51.7-127.1
		C83.3,13.4,125,0.5,167.2,0.5 M167.2,265.8L167.2,265.8c24.3-0.3,44.8-9.6,59.2-26.4c14.4-16.8,22.6-41.2,22.6-71.6
		c0-30.4-8.6-54.8-23.2-71.5c-14.6-16.7-35.3-25.8-59.3-25.8c-24,0-44.5,8.9-59,25.6c-14.5,16.7-22.9,41-22.9,71.7
		c0,30.8,8.6,55.3,23.2,72.1C122.5,256.7,143.2,265.8,167.2,265.8 M167.2-0.5C122.3-0.5,81.3,13.9,51.6,40
		c-16.3,14.3-29,32-37.8,52.4c-9.5,22.1-14.3,47.5-14.3,75.4c0,28.2,4.8,53.8,14.3,76.1c8.7,20.6,21.5,38.3,37.8,52.7
		c29.5,26,70.6,40.5,115.6,40.9c44.9,0,85.8-14.4,115.3-40.6c16.2-14.4,28.9-32.2,37.6-52.8c9.4-22.3,14.2-47.9,14.2-76.2
		c0-27.9-4.8-53.3-14.3-75.4C311.3,72,298.6,54.3,282.3,40C252.7,13.9,211.8-0.5,167.2-0.5L167.2-0.5z M167.2,264.8
		c-23.7,0-44-8.8-58.5-25.6c-15-17.3-23-42-23-71.4c0-29.5,7.8-54,22.6-71.1c14.3-16.5,34.5-25.2,58.2-25.2c23.7,0,44,8.8,58.5,25.5
		c15,17.2,23,41.7,23,70.8c0,29.3-7.7,53.8-22.4,70.9C211.4,255.5,191.1,264.5,167.2,264.8L167.2,264.8L167.2,264.8z"/>
</g>
<g>
	<path class="st0" d="M533.9,33.4c1.9,0,3.8,0.8,5.4,2.2c2.7,2.4,4.7,6.5,4.7,11.4v39.8c0,5.2-2.1,9.8-5.7,12.4l-89.6,56.2
		c0,0,0,0,0,0c-4.1,2.5-6.2,7.7-6.2,12.8c0,5.1,2,10.3,6.2,12.8c0,0,0,0,0,0l89.7,56.8l0,0l0,0c3.5,2,5.6,6.6,5.6,12.4V290
		c0,4.9-1.9,9.1-4.7,11.4c-1.6,1.4-3.5,2.2-5.4,2.2c-1.4,0-2.7-0.4-4.1-1.2l-141.7-88.1c-3.6-2.6-6.2-7.2-6.2-12.4v-67.4
		c0-5.2,2.1-9.8,5.7-12.4l142.2-87.5C531.2,33.8,532.6,33.4,533.9,33.4 M533.9,32.9L533.9,32.9c-1.5,0-3,0.4-4.4,1.3l-142.2,87.5
		c-3.7,2.6-5.9,7.4-5.9,12.8v67.4c0,5.1,2.4,10,6.4,12.8l141.7,88.1c1.4,0.9,2.9,1.3,4.4,1.3c2,0,4-0.8,5.8-2.3
		c3.1-2.6,4.9-7,4.9-11.8v-39.8c0-5.9-2.2-10.7-5.9-12.8l-89.6-56.7l0,0l-0.1,0l0,0l0,0c-3.6-2.2-5.9-6.9-5.9-12.4
		c0-5.4,2.3-10.2,5.9-12.4l0,0l89.7-56.2c3.7-2.6,5.9-7.4,5.9-12.8V47c0-4.8-1.8-9.2-4.9-11.8C538,33.7,536,32.9,533.9,32.9
		L533.9,32.9z"/>
</g>
</svg>
