<svg width="1080" height="200" viewBox="0 0 1080 200" fill="none" xmlns="http://www.w3.org/2000/svg">
<g clip-path="url(#clip0)">
<rect width="1080" height="200" fill="white"/>
<path d="M63.2803 46.5576C63.2803 48.6846 62.7529 50.3193 61.6982 51.4619C60.6436 52.6045 59.1318 53.1758 57.1631 53.1758C55.1943 53.1758 53.6826 52.6045 52.6279 51.4619C51.5732 50.3193 51.0459 48.6787 51.0459 46.54C51.0459 44.4014 51.5732 42.7695 52.6279 41.6445C53.6885 40.5137 55.2061 39.9482 57.1807 39.9482C59.1553 39.9482 60.6641 40.5166 61.707 41.6533C62.7559 42.79 63.2803 44.4248 63.2803 46.5576ZM53.9023 46.5576C53.9023 47.9932 54.1748 49.0742 54.7197 49.8008C55.2646 50.5273 56.0791 50.8906 57.1631 50.8906C59.3369 50.8906 60.4238 49.4463 60.4238 46.5576C60.4238 43.6631 59.3428 42.2158 57.1807 42.2158C56.0967 42.2158 55.2793 42.582 54.7285 43.3145C54.1777 44.041 53.9023 45.1221 53.9023 46.5576ZM71.1289 53.1758C69.9746 53.1758 69.0693 52.7568 68.4131 51.9189H68.2725C68.3662 52.7393 68.4131 53.2139 68.4131 53.3428V57.3242H65.7324V43.1738H67.9121L68.29 44.4482H68.4131C69.04 43.4756 69.9688 42.9893 71.1992 42.9893C72.3594 42.9893 73.2676 43.4375 73.9238 44.334C74.5801 45.2305 74.9082 46.4756 74.9082 48.0693C74.9082 49.1182 74.7529 50.0293 74.4424 50.8027C74.1377 51.5762 73.7012 52.165 73.1328 52.5693C72.5645 52.9736 71.8965 53.1758 71.1289 53.1758ZM70.3379 45.1338C69.6758 45.1338 69.1924 45.3389 68.8877 45.749C68.583 46.1533 68.4248 46.8242 68.4131 47.7617V48.0518C68.4131 49.1064 68.5684 49.8623 68.8789 50.3193C69.1953 50.7764 69.6934 51.0049 70.373 51.0049C71.5742 51.0049 72.1748 50.0146 72.1748 48.0342C72.1748 47.0674 72.0254 46.3438 71.7266 45.8633C71.4336 45.377 70.9707 45.1338 70.3379 45.1338ZM81.1924 44.8965C80.624 44.8965 80.1787 45.0781 79.8564 45.4414C79.5342 45.7988 79.3496 46.3086 79.3027 46.9707H83.0645C83.0527 46.3086 82.8799 45.7988 82.5459 45.4414C82.2119 45.0781 81.7607 44.8965 81.1924 44.8965ZM81.5703 53.1758C79.9883 53.1758 78.752 52.7393 77.8613 51.8662C76.9707 50.9932 76.5254 49.7568 76.5254 48.1572C76.5254 46.5107 76.9355 45.2393 77.7559 44.3428C78.582 43.4404 79.7217 42.9893 81.1748 42.9893C82.5635 42.9893 83.6445 43.3848 84.418 44.1758C85.1914 44.9668 85.5781 46.0596 85.5781 47.4541V48.7549H79.2412C79.2705 49.5166 79.4961 50.1113 79.918 50.5391C80.3398 50.9668 80.9316 51.1807 81.6934 51.1807C82.2852 51.1807 82.8447 51.1191 83.3721 50.9961C83.8994 50.873 84.4502 50.6768 85.0244 50.4072V52.4814C84.5557 52.7158 84.0547 52.8887 83.5215 53C82.9883 53.1172 82.3379 53.1758 81.5703 53.1758ZM96.8281 53H94.1475V47.2607C94.1475 46.5518 94.0215 46.0215 93.7695 45.6699C93.5176 45.3125 93.1162 45.1338 92.5654 45.1338C91.8154 45.1338 91.2734 45.3857 90.9395 45.8896C90.6055 46.3877 90.4385 47.2168 90.4385 48.377V53H87.7578V43.1738H89.8057L90.166 44.4307H90.3154C90.6143 43.9561 91.0244 43.5986 91.5459 43.3584C92.0732 43.1123 92.6709 42.9893 93.3389 42.9893C94.4814 42.9893 95.3486 43.2998 95.9404 43.9209C96.5322 44.5361 96.8281 45.4268 96.8281 46.5928V53ZM112.06 49.4316C112.06 50.5918 111.641 51.5059 110.803 52.1738C109.971 52.8418 108.811 53.1758 107.322 53.1758C105.951 53.1758 104.738 52.918 103.684 52.4023V49.8711C104.551 50.2578 105.283 50.5303 105.881 50.6885C106.484 50.8467 107.035 50.9258 107.533 50.9258C108.131 50.9258 108.588 50.8115 108.904 50.583C109.227 50.3545 109.388 50.0146 109.388 49.5635C109.388 49.3115 109.317 49.0889 109.177 48.8955C109.036 48.6963 108.828 48.5059 108.553 48.3242C108.283 48.1426 107.729 47.8525 106.892 47.4541C106.106 47.085 105.518 46.7305 105.125 46.3906C104.732 46.0508 104.419 45.6553 104.185 45.2041C103.95 44.7529 103.833 44.2256 103.833 43.6221C103.833 42.4854 104.217 41.5918 104.984 40.9414C105.758 40.291 106.824 39.9658 108.184 39.9658C108.852 39.9658 109.487 40.0449 110.091 40.2031C110.7 40.3613 111.336 40.584 111.998 40.8711L111.119 42.9893C110.434 42.708 109.865 42.5117 109.414 42.4004C108.969 42.2891 108.529 42.2334 108.096 42.2334C107.58 42.2334 107.185 42.3535 106.909 42.5938C106.634 42.834 106.496 43.1475 106.496 43.5342C106.496 43.7744 106.552 43.9854 106.663 44.167C106.774 44.3428 106.95 44.5156 107.19 44.6855C107.437 44.8496 108.014 45.1484 108.922 45.582C110.123 46.1562 110.946 46.7334 111.392 47.3135C111.837 47.8877 112.06 48.5938 112.06 49.4316ZM120.418 53L119.899 51.6641H119.829C119.378 52.2324 118.912 52.6279 118.432 52.8506C117.957 53.0674 117.336 53.1758 116.568 53.1758C115.625 53.1758 114.881 52.9062 114.336 52.3672C113.797 51.8281 113.527 51.0605 113.527 50.0645C113.527 49.0215 113.891 48.2539 114.617 47.7617C115.35 47.2637 116.451 46.9883 117.922 46.9355L119.627 46.8828V46.4521C119.627 45.4561 119.117 44.958 118.098 44.958C117.312 44.958 116.39 45.1953 115.329 45.6699L114.441 43.8594C115.572 43.2676 116.826 42.9717 118.203 42.9717C119.521 42.9717 120.532 43.2588 121.235 43.833C121.938 44.4072 122.29 45.2803 122.29 46.4521V53H120.418ZM119.627 48.4473L118.59 48.4824C117.811 48.5059 117.23 48.6465 116.85 48.9043C116.469 49.1621 116.278 49.5547 116.278 50.082C116.278 50.8379 116.712 51.2158 117.579 51.2158C118.2 51.2158 118.695 51.0371 119.064 50.6797C119.439 50.3223 119.627 49.8477 119.627 49.2559V48.4473ZM134.129 53H131.448V47.2607C131.448 46.5518 131.322 46.0215 131.07 45.6699C130.818 45.3125 130.417 45.1338 129.866 45.1338C129.116 45.1338 128.574 45.3857 128.24 45.8896C127.906 46.3877 127.739 47.2168 127.739 48.377V53H125.059V43.1738H127.106L127.467 44.4307H127.616C127.915 43.9561 128.325 43.5986 128.847 43.3584C129.374 43.1123 129.972 42.9893 130.64 42.9893C131.782 42.9893 132.649 43.2998 133.241 43.9209C133.833 44.5361 134.129 45.4268 134.129 46.5928V53ZM143.744 50.082C143.744 51.0898 143.393 51.8574 142.689 52.3848C141.992 52.9121 140.946 53.1758 139.552 53.1758C138.837 53.1758 138.228 53.126 137.724 53.0264C137.22 52.9326 136.748 52.792 136.309 52.6045V50.3896C136.807 50.624 137.366 50.8203 137.987 50.9785C138.614 51.1367 139.165 51.2158 139.64 51.2158C140.612 51.2158 141.099 50.9346 141.099 50.3721C141.099 50.1611 141.034 49.9912 140.905 49.8623C140.776 49.7275 140.554 49.5781 140.237 49.4141C139.921 49.2441 139.499 49.0479 138.972 48.8252C138.216 48.5088 137.659 48.2158 137.302 47.9463C136.95 47.6768 136.692 47.3691 136.528 47.0234C136.37 46.6719 136.291 46.2412 136.291 45.7314C136.291 44.8584 136.628 44.1846 137.302 43.71C137.981 43.2295 138.942 42.9893 140.185 42.9893C141.368 42.9893 142.52 43.2471 143.639 43.7627L142.83 45.6963C142.338 45.4854 141.878 45.3125 141.45 45.1777C141.022 45.043 140.586 44.9756 140.141 44.9756C139.35 44.9756 138.954 45.1895 138.954 45.6172C138.954 45.8574 139.08 46.0654 139.332 46.2412C139.59 46.417 140.149 46.6777 141.011 47.0234C141.778 47.334 142.341 47.624 142.698 47.8936C143.056 48.1631 143.319 48.4736 143.489 48.8252C143.659 49.1768 143.744 49.5957 143.744 50.082Z" fill="black"/>
<path d="M55.6533 69.9014C54.555 69.9014 53.6868 70.2682 53.0488 71.002C52.4154 71.7311 52.0986 72.7314 52.0986 74.0029C52.0986 75.3109 52.404 76.3226 53.0146 77.0381C53.6299 77.749 54.5049 78.1045 55.6396 78.1045C56.3369 78.1045 57.1322 77.9792 58.0254 77.7285V78.7471C57.3327 79.0068 56.4782 79.1367 55.4619 79.1367C53.9899 79.1367 52.8529 78.6901 52.0508 77.7969C51.2533 76.9036 50.8545 75.6344 50.8545 73.9893C50.8545 72.9593 51.0459 72.057 51.4287 71.2822C51.8161 70.5075 52.3721 69.9105 53.0967 69.4912C53.8258 69.0719 54.6826 68.8623 55.667 68.8623C56.7152 68.8623 57.6312 69.0537 58.415 69.4365L57.9229 70.4346C57.1663 70.0791 56.4098 69.9014 55.6533 69.9014ZM61.1699 79H60.0352V68.3633H61.1699V79ZM66.7412 79.1367C65.6338 79.1367 64.7588 78.7995 64.1162 78.125C63.4782 77.4505 63.1592 76.514 63.1592 75.3154C63.1592 74.1077 63.4554 73.1484 64.0479 72.4375C64.6449 71.7266 65.4447 71.3711 66.4473 71.3711C67.3861 71.3711 68.1289 71.681 68.6758 72.3008C69.2227 72.916 69.4961 73.7295 69.4961 74.7412V75.459H64.335C64.3577 76.3385 64.5788 77.0062 64.998 77.4619C65.4219 77.9176 66.0166 78.1455 66.7822 78.1455C67.5889 78.1455 68.3864 77.9769 69.1748 77.6396V78.6514C68.7738 78.8245 68.3932 78.9476 68.0332 79.0205C67.6777 79.098 67.2471 79.1367 66.7412 79.1367ZM66.4336 72.3213C65.832 72.3213 65.3512 72.5173 64.9912 72.9092C64.6357 73.3011 64.4261 73.8434 64.3623 74.5361H68.2793C68.2793 73.8206 68.1198 73.2738 67.8008 72.8955C67.4818 72.5127 67.026 72.3213 66.4336 72.3213ZM76.0449 79L75.8193 77.9336H75.7646C75.391 78.403 75.0173 78.722 74.6436 78.8906C74.2744 79.0547 73.8118 79.1367 73.2559 79.1367C72.513 79.1367 71.9297 78.9453 71.5059 78.5625C71.0866 78.1797 70.877 77.6351 70.877 76.9287C70.877 75.4157 72.0869 74.6227 74.5068 74.5498L75.7783 74.5088V74.0439C75.7783 73.4561 75.6507 73.0231 75.3955 72.7451C75.1449 72.4626 74.7415 72.3213 74.1855 72.3213C73.5612 72.3213 72.8548 72.5127 72.0664 72.8955L71.7178 72.0273C72.0869 71.8268 72.4902 71.6696 72.9277 71.5557C73.3698 71.4417 73.8118 71.3848 74.2539 71.3848C75.1471 71.3848 75.8079 71.583 76.2363 71.9795C76.6693 72.376 76.8857 73.0117 76.8857 73.8867V79H76.0449ZM73.4814 78.2002C74.1878 78.2002 74.7415 78.0065 75.1426 77.6191C75.5482 77.2318 75.751 76.6895 75.751 75.9922V75.3154L74.6162 75.3633C73.7139 75.3952 73.0622 75.5365 72.6611 75.7871C72.2646 76.0332 72.0664 76.4183 72.0664 76.9424C72.0664 77.3525 72.1895 77.6647 72.4355 77.8789C72.6862 78.0931 73.0348 78.2002 73.4814 78.2002ZM84.3574 79V74.1533C84.3574 73.5426 84.2184 73.0869 83.9404 72.7861C83.6624 72.4854 83.2272 72.335 82.6348 72.335C81.8509 72.335 81.2767 72.5469 80.9121 72.9707C80.5475 73.3945 80.3652 74.0941 80.3652 75.0693V79H79.2305V71.5078H80.1533L80.3379 72.5332H80.3926C80.625 72.1641 80.9508 71.8792 81.3701 71.6787C81.7894 71.4736 82.2565 71.3711 82.7715 71.3711C83.6738 71.3711 84.3529 71.5898 84.8086 72.0273C85.2643 72.4603 85.4922 73.1553 85.4922 74.1123V79H84.3574ZM89.0195 77.373L89.1221 77.5303C89.0036 77.986 88.8327 78.5146 88.6094 79.1162C88.3861 79.7223 88.1536 80.2852 87.9121 80.8047H87.0576C87.1807 80.3307 87.3151 79.7451 87.4609 79.0479C87.6113 78.3506 87.7161 77.7923 87.7754 77.373H89.0195ZM100.025 79V74.1533C100.025 73.5426 99.8864 73.0869 99.6084 72.7861C99.3304 72.4854 98.8952 72.335 98.3027 72.335C97.5189 72.335 96.9447 72.5469 96.5801 72.9707C96.2155 73.3945 96.0332 74.0941 96.0332 75.0693V79H94.8984V71.5078H95.8213L96.0059 72.5332H96.0605C96.293 72.1641 96.6188 71.8792 97.0381 71.6787C97.4574 71.4736 97.9245 71.3711 98.4395 71.3711C99.3418 71.3711 100.021 71.5898 100.477 72.0273C100.932 72.4603 101.16 73.1553 101.16 74.1123V79H100.025ZM108.105 79L107.88 77.9336H107.825C107.451 78.403 107.078 78.722 106.704 78.8906C106.335 79.0547 105.872 79.1367 105.316 79.1367C104.574 79.1367 103.99 78.9453 103.566 78.5625C103.147 78.1797 102.938 77.6351 102.938 76.9287C102.938 75.4157 104.147 74.6227 106.567 74.5498L107.839 74.5088V74.0439C107.839 73.4561 107.711 73.0231 107.456 72.7451C107.205 72.4626 106.802 72.3213 106.246 72.3213C105.622 72.3213 104.915 72.5127 104.127 72.8955L103.778 72.0273C104.147 71.8268 104.551 71.6696 104.988 71.5557C105.43 71.4417 105.872 71.3848 106.314 71.3848C107.208 71.3848 107.868 71.583 108.297 71.9795C108.73 72.376 108.946 73.0117 108.946 73.8867V79H108.105ZM105.542 78.2002C106.248 78.2002 106.802 78.0065 107.203 77.6191C107.609 77.2318 107.812 76.6895 107.812 75.9922V75.3154L106.677 75.3633C105.774 75.3952 105.123 75.5365 104.722 75.7871C104.325 76.0332 104.127 76.4183 104.127 76.9424C104.127 77.3525 104.25 77.6647 104.496 77.8789C104.747 78.0931 105.095 78.2002 105.542 78.2002ZM113.711 78.2002C113.911 78.2002 114.105 78.1865 114.292 78.1592C114.479 78.1273 114.627 78.0954 114.736 78.0635V78.9316C114.613 78.9909 114.431 79.0387 114.189 79.0752C113.952 79.1162 113.738 79.1367 113.547 79.1367C112.098 79.1367 111.373 78.3734 111.373 76.8467V72.3896H110.3V71.8428L111.373 71.3711L111.852 69.7715H112.508V71.5078H114.682V72.3896H112.508V76.7988C112.508 77.25 112.615 77.5964 112.829 77.8379C113.043 78.0794 113.337 78.2002 113.711 78.2002ZM117.307 71.5078V76.3682C117.307 76.9788 117.446 77.4346 117.724 77.7354C118.002 78.0361 118.437 78.1865 119.029 78.1865C119.813 78.1865 120.385 77.9723 120.745 77.5439C121.11 77.1156 121.292 76.416 121.292 75.4453V71.5078H122.427V79H121.49L121.326 77.9951H121.265C121.032 78.3643 120.709 78.6468 120.294 78.8428C119.884 79.0387 119.414 79.1367 118.886 79.1367C117.974 79.1367 117.291 78.9202 116.835 78.4873C116.384 78.0544 116.158 77.3617 116.158 76.4092V71.5078H117.307ZM128.258 71.3711C128.59 71.3711 128.889 71.3984 129.153 71.4531L128.996 72.5059C128.686 72.4375 128.413 72.4033 128.176 72.4033C127.57 72.4033 127.05 72.6494 126.617 73.1416C126.189 73.6338 125.975 74.2467 125.975 74.9805V79H124.84V71.5078H125.776L125.906 72.8955H125.961C126.239 72.4079 126.574 72.0319 126.966 71.7676C127.358 71.5033 127.788 71.3711 128.258 71.3711ZM135.162 79L134.937 77.9336H134.882C134.508 78.403 134.134 78.722 133.761 78.8906C133.392 79.0547 132.929 79.1367 132.373 79.1367C131.63 79.1367 131.047 78.9453 130.623 78.5625C130.204 78.1797 129.994 77.6351 129.994 76.9287C129.994 75.4157 131.204 74.6227 133.624 74.5498L134.896 74.5088V74.0439C134.896 73.4561 134.768 73.0231 134.513 72.7451C134.262 72.4626 133.859 72.3213 133.303 72.3213C132.678 72.3213 131.972 72.5127 131.184 72.8955L130.835 72.0273C131.204 71.8268 131.607 71.6696 132.045 71.5557C132.487 71.4417 132.929 71.3848 133.371 71.3848C134.264 71.3848 134.925 71.583 135.354 71.9795C135.786 72.376 136.003 73.0117 136.003 73.8867V79H135.162ZM132.599 78.2002C133.305 78.2002 133.859 78.0065 134.26 77.6191C134.665 77.2318 134.868 76.6895 134.868 75.9922V75.3154L133.733 75.3633C132.831 75.3952 132.179 75.5365 131.778 75.7871C131.382 76.0332 131.184 76.4183 131.184 76.9424C131.184 77.3525 131.307 77.6647 131.553 77.8789C131.803 78.0931 132.152 78.2002 132.599 78.2002ZM139.482 79H138.348V68.3633H139.482V79ZM143.078 77.373L143.181 77.5303C143.062 77.986 142.891 78.5146 142.668 79.1162C142.445 79.7223 142.212 80.2852 141.971 80.8047H141.116C141.239 80.3307 141.374 79.7451 141.52 79.0479C141.67 78.3506 141.775 77.7923 141.834 77.373H143.078ZM152.334 72.3896H150.427V79H149.292V72.3896H147.952V71.877L149.292 71.4668V71.0498C149.292 69.2087 150.096 68.2881 151.705 68.2881C152.102 68.2881 152.566 68.3678 153.1 68.5273L152.806 69.4365C152.368 69.2952 151.994 69.2246 151.685 69.2246C151.256 69.2246 150.939 69.3682 150.734 69.6553C150.529 69.9378 150.427 70.3936 150.427 71.0225V71.5078H152.334V72.3896ZM157.119 71.3711C157.452 71.3711 157.75 71.3984 158.015 71.4531L157.857 72.5059C157.548 72.4375 157.274 72.4033 157.037 72.4033C156.431 72.4033 155.911 72.6494 155.479 73.1416C155.05 73.6338 154.836 74.2467 154.836 74.9805V79H153.701V71.5078H154.638L154.768 72.8955H154.822C155.1 72.4079 155.435 72.0319 155.827 71.7676C156.219 71.5033 156.65 71.3711 157.119 71.3711ZM160.551 79H159.416V71.5078H160.551V79ZM159.32 69.4775C159.32 69.2178 159.384 69.0286 159.512 68.9102C159.639 68.7871 159.799 68.7256 159.99 68.7256C160.173 68.7256 160.33 68.7871 160.462 68.9102C160.594 69.0332 160.66 69.2223 160.66 69.4775C160.66 69.7327 160.594 69.9242 160.462 70.0518C160.33 70.1748 160.173 70.2363 159.99 70.2363C159.799 70.2363 159.639 70.1748 159.512 70.0518C159.384 69.9242 159.32 69.7327 159.32 69.4775ZM166.122 79.1367C165.015 79.1367 164.14 78.7995 163.497 78.125C162.859 77.4505 162.54 76.514 162.54 75.3154C162.54 74.1077 162.836 73.1484 163.429 72.4375C164.026 71.7266 164.826 71.3711 165.828 71.3711C166.767 71.3711 167.51 71.681 168.057 72.3008C168.604 72.916 168.877 73.7295 168.877 74.7412V75.459H163.716C163.739 76.3385 163.96 77.0062 164.379 77.4619C164.803 77.9176 165.397 78.1455 166.163 78.1455C166.97 78.1455 167.767 77.9769 168.556 77.6396V78.6514C168.155 78.8245 167.774 78.9476 167.414 79.0205C167.059 79.098 166.628 79.1367 166.122 79.1367ZM165.814 72.3213C165.213 72.3213 164.732 72.5173 164.372 72.9092C164.017 73.3011 163.807 73.8434 163.743 74.5361H167.66C167.66 73.8206 167.501 73.2738 167.182 72.8955C166.863 72.5127 166.407 72.3213 165.814 72.3213ZM175.945 79V74.1533C175.945 73.5426 175.806 73.0869 175.528 72.7861C175.25 72.4854 174.815 72.335 174.223 72.335C173.439 72.335 172.865 72.5469 172.5 72.9707C172.135 73.3945 171.953 74.0941 171.953 75.0693V79H170.818V71.5078H171.741L171.926 72.5332H171.98C172.213 72.1641 172.539 71.8792 172.958 71.6787C173.377 71.4736 173.844 71.3711 174.359 71.3711C175.262 71.3711 175.941 71.5898 176.396 72.0273C176.852 72.4603 177.08 73.1553 177.08 74.1123V79H175.945ZM184.518 77.9951H184.456C183.932 78.7562 183.148 79.1367 182.104 79.1367C181.125 79.1367 180.361 78.8018 179.814 78.1318C179.272 77.4619 179.001 76.5094 179.001 75.2744C179.001 74.0394 179.274 73.0801 179.821 72.3965C180.368 71.7129 181.129 71.3711 182.104 71.3711C183.121 71.3711 183.9 71.7402 184.442 72.4785H184.531L184.483 71.9385L184.456 71.4121V68.3633H185.591V79H184.668L184.518 77.9951ZM182.248 78.1865C183.023 78.1865 183.583 77.9769 183.93 77.5576C184.281 77.1338 184.456 76.4525 184.456 75.5137V75.2744C184.456 74.2126 184.278 73.4561 183.923 73.0049C183.572 72.5492 183.009 72.3213 182.234 72.3213C181.569 72.3213 181.059 72.5811 180.703 73.1006C180.352 73.6156 180.177 74.3447 180.177 75.2881C180.177 76.2451 180.352 76.9674 180.703 77.4551C181.054 77.9427 181.569 78.1865 182.248 78.1865ZM189.139 79H188.004V68.3633H189.139V79ZM190.355 71.5078H191.572L193.213 75.7803C193.573 76.7555 193.796 77.4596 193.883 77.8926H193.938C193.997 77.6602 194.12 77.2637 194.307 76.7031C194.498 76.138 195.118 74.4062 196.166 71.5078H197.383L194.163 80.0391C193.844 80.8822 193.47 81.4792 193.042 81.8301C192.618 82.1855 192.096 82.3633 191.477 82.3633C191.13 82.3633 190.788 82.3245 190.451 82.2471V81.3379C190.702 81.3926 190.982 81.4199 191.292 81.4199C192.071 81.4199 192.627 80.9824 192.96 80.1074L193.377 79.041L190.355 71.5078ZM199.789 77.373L199.892 77.5303C199.773 77.986 199.602 78.5146 199.379 79.1162C199.156 79.7223 198.923 80.2852 198.682 80.8047H197.827C197.95 80.3307 198.085 79.7451 198.23 79.0479C198.381 78.3506 198.486 77.7923 198.545 77.373H199.789ZM210.275 79L210.05 77.9336H209.995C209.621 78.403 209.248 78.722 208.874 78.8906C208.505 79.0547 208.042 79.1367 207.486 79.1367C206.743 79.1367 206.16 78.9453 205.736 78.5625C205.317 78.1797 205.107 77.6351 205.107 76.9287C205.107 75.4157 206.317 74.6227 208.737 74.5498L210.009 74.5088V74.0439C210.009 73.4561 209.881 73.0231 209.626 72.7451C209.375 72.4626 208.972 72.3213 208.416 72.3213C207.792 72.3213 207.085 72.5127 206.297 72.8955L205.948 72.0273C206.317 71.8268 206.721 71.6696 207.158 71.5557C207.6 71.4417 208.042 71.3848 208.484 71.3848C209.378 71.3848 210.038 71.583 210.467 71.9795C210.9 72.376 211.116 73.0117 211.116 73.8867V79H210.275ZM207.712 78.2002C208.418 78.2002 208.972 78.0065 209.373 77.6191C209.779 77.2318 209.981 76.6895 209.981 75.9922V75.3154L208.847 75.3633C207.944 75.3952 207.293 75.5365 206.892 75.7871C206.495 76.0332 206.297 76.4183 206.297 76.9424C206.297 77.3525 206.42 77.6647 206.666 77.8789C206.917 78.0931 207.265 78.2002 207.712 78.2002ZM218.588 79V74.1533C218.588 73.5426 218.449 73.0869 218.171 72.7861C217.893 72.4854 217.458 72.335 216.865 72.335C216.081 72.335 215.507 72.5469 215.143 72.9707C214.778 73.3945 214.596 74.0941 214.596 75.0693V79H213.461V71.5078H214.384L214.568 72.5332H214.623C214.855 72.1641 215.181 71.8792 215.601 71.6787C216.02 71.4736 216.487 71.3711 217.002 71.3711C217.904 71.3711 218.583 71.5898 219.039 72.0273C219.495 72.4603 219.723 73.1553 219.723 74.1123V79H218.588ZM227.16 77.9951H227.099C226.575 78.7562 225.791 79.1367 224.747 79.1367C223.767 79.1367 223.004 78.8018 222.457 78.1318C221.915 77.4619 221.644 76.5094 221.644 75.2744C221.644 74.0394 221.917 73.0801 222.464 72.3965C223.011 71.7129 223.772 71.3711 224.747 71.3711C225.763 71.3711 226.543 71.7402 227.085 72.4785H227.174L227.126 71.9385L227.099 71.4121V68.3633H228.233V79H227.311L227.16 77.9951ZM224.891 78.1865C225.665 78.1865 226.226 77.9769 226.572 77.5576C226.923 77.1338 227.099 76.4525 227.099 75.5137V75.2744C227.099 74.2126 226.921 73.4561 226.565 73.0049C226.215 72.5492 225.652 72.3213 224.877 72.3213C224.212 72.3213 223.701 72.5811 223.346 73.1006C222.995 73.6156 222.819 74.3447 222.819 75.2881C222.819 76.2451 222.995 76.9674 223.346 77.4551C223.697 77.9427 224.212 78.1865 224.891 78.1865ZM238.891 79L238.665 77.9336H238.61C238.237 78.403 237.863 78.722 237.489 78.8906C237.12 79.0547 236.658 79.1367 236.102 79.1367C235.359 79.1367 234.775 78.9453 234.352 78.5625C233.932 78.1797 233.723 77.6351 233.723 76.9287C233.723 75.4157 234.933 74.6227 237.353 74.5498L238.624 74.5088V74.0439C238.624 73.4561 238.496 73.0231 238.241 72.7451C237.991 72.4626 237.587 72.3213 237.031 72.3213C236.407 72.3213 235.701 72.5127 234.912 72.8955L234.563 72.0273C234.933 71.8268 235.336 71.6696 235.773 71.5557C236.215 71.4417 236.658 71.3848 237.1 71.3848C237.993 71.3848 238.654 71.583 239.082 71.9795C239.515 72.376 239.731 73.0117 239.731 73.8867V79H238.891ZM236.327 78.2002C237.034 78.2002 237.587 78.0065 237.988 77.6191C238.394 77.2318 238.597 76.6895 238.597 75.9922V75.3154L237.462 75.3633C236.56 75.3952 235.908 75.5365 235.507 75.7871C235.11 76.0332 234.912 76.4183 234.912 76.9424C234.912 77.3525 235.035 77.6647 235.281 77.8789C235.532 78.0931 235.881 78.2002 236.327 78.2002ZM245.07 79.1367C243.986 79.1367 243.145 78.804 242.548 78.1387C241.955 77.4688 241.659 76.5231 241.659 75.3018C241.659 74.0485 241.96 73.0801 242.562 72.3965C243.168 71.7129 244.029 71.3711 245.146 71.3711C245.506 71.3711 245.866 71.4098 246.226 71.4873C246.586 71.5648 246.868 71.6559 247.073 71.7607L246.725 72.7246C246.474 72.6243 246.201 72.5423 245.904 72.4785C245.608 72.4102 245.346 72.376 245.118 72.376C243.596 72.376 242.835 73.3467 242.835 75.2881C242.835 76.2087 243.02 76.915 243.389 77.4072C243.762 77.8994 244.314 78.1455 245.043 78.1455C245.667 78.1455 246.308 78.0111 246.964 77.7422V78.7471C246.463 79.0068 245.831 79.1367 245.07 79.1367ZM251.742 79.1367C250.658 79.1367 249.817 78.804 249.22 78.1387C248.627 77.4688 248.331 76.5231 248.331 75.3018C248.331 74.0485 248.632 73.0801 249.233 72.3965C249.84 71.7129 250.701 71.3711 251.817 71.3711C252.177 71.3711 252.537 71.4098 252.897 71.4873C253.257 71.5648 253.54 71.6559 253.745 71.7607L253.396 72.7246C253.146 72.6243 252.872 72.5423 252.576 72.4785C252.28 72.4102 252.018 72.376 251.79 72.376C250.268 72.376 249.507 73.3467 249.507 75.2881C249.507 76.2087 249.691 76.915 250.061 77.4072C250.434 77.8994 250.986 78.1455 251.715 78.1455C252.339 78.1455 252.979 78.0111 253.636 77.7422V78.7471C253.134 79.0068 252.503 79.1367 251.742 79.1367ZM258.585 79.1367C257.478 79.1367 256.603 78.7995 255.96 78.125C255.322 77.4505 255.003 76.514 255.003 75.3154C255.003 74.1077 255.299 73.1484 255.892 72.4375C256.489 71.7266 257.288 71.3711 258.291 71.3711C259.23 71.3711 259.973 71.681 260.52 72.3008C261.066 72.916 261.34 73.7295 261.34 74.7412V75.459H256.179C256.201 76.3385 256.423 77.0062 256.842 77.4619C257.266 77.9176 257.86 78.1455 258.626 78.1455C259.433 78.1455 260.23 77.9769 261.019 77.6396V78.6514C260.618 78.8245 260.237 78.9476 259.877 79.0205C259.521 79.098 259.091 79.1367 258.585 79.1367ZM258.277 72.3213C257.676 72.3213 257.195 72.5173 256.835 72.9092C256.479 73.3011 256.27 73.8434 256.206 74.5361H260.123C260.123 73.8206 259.964 73.2738 259.645 72.8955C259.326 72.5127 258.87 72.3213 258.277 72.3213ZM268.114 76.9561C268.114 77.6533 267.854 78.1911 267.335 78.5693C266.815 78.9476 266.086 79.1367 265.147 79.1367C264.154 79.1367 263.379 78.9795 262.823 78.665V77.6123C263.183 77.7946 263.568 77.9382 263.979 78.043C264.393 78.1478 264.792 78.2002 265.175 78.2002C265.767 78.2002 266.223 78.1068 266.542 77.9199C266.861 77.7285 267.021 77.4391 267.021 77.0518C267.021 76.7601 266.893 76.5117 266.638 76.3066C266.387 76.097 265.895 75.8509 265.161 75.5684C264.464 75.3086 263.967 75.083 263.671 74.8916C263.379 74.6956 263.16 74.4746 263.015 74.2285C262.873 73.9824 262.803 73.6885 262.803 73.3467C262.803 72.736 263.051 72.2552 263.548 71.9043C264.045 71.5488 264.726 71.3711 265.592 71.3711C266.398 71.3711 267.187 71.5352 267.957 71.8633L267.554 72.7861C266.802 72.4762 266.12 72.3213 265.51 72.3213C264.972 72.3213 264.566 72.4056 264.293 72.5742C264.02 72.7428 263.883 72.9753 263.883 73.2715C263.883 73.472 263.933 73.6429 264.033 73.7842C264.138 73.9255 264.304 74.0599 264.532 74.1875C264.76 74.3151 265.198 74.4997 265.845 74.7412C266.733 75.0648 267.333 75.3906 267.643 75.7188C267.957 76.0469 268.114 76.4593 268.114 76.9561ZM274.8 76.9561C274.8 77.6533 274.54 78.1911 274.021 78.5693C273.501 78.9476 272.772 79.1367 271.833 79.1367C270.84 79.1367 270.065 78.9795 269.509 78.665V77.6123C269.869 77.7946 270.254 77.9382 270.664 78.043C271.079 78.1478 271.478 78.2002 271.86 78.2002C272.453 78.2002 272.909 78.1068 273.228 77.9199C273.547 77.7285 273.706 77.4391 273.706 77.0518C273.706 76.7601 273.578 76.5117 273.323 76.3066C273.073 76.097 272.58 75.8509 271.847 75.5684C271.149 75.3086 270.653 75.083 270.356 74.8916C270.065 74.6956 269.846 74.4746 269.7 74.2285C269.559 73.9824 269.488 73.6885 269.488 73.3467C269.488 72.736 269.737 72.2552 270.233 71.9043C270.73 71.5488 271.411 71.3711 272.277 71.3711C273.084 71.3711 273.872 71.5352 274.643 71.8633L274.239 72.7861C273.487 72.4762 272.806 72.3213 272.195 72.3213C271.658 72.3213 271.252 72.4056 270.979 72.5742C270.705 72.7428 270.568 72.9753 270.568 73.2715C270.568 73.472 270.618 73.6429 270.719 73.7842C270.824 73.9255 270.99 74.0599 271.218 74.1875C271.446 74.3151 271.883 74.4997 272.53 74.7412C273.419 75.0648 274.018 75.3906 274.328 75.7188C274.643 76.0469 274.8 76.4593 274.8 76.9561ZM277.787 79H276.652V71.5078H277.787V79ZM276.557 69.4775C276.557 69.2178 276.62 69.0286 276.748 68.9102C276.876 68.7871 277.035 68.7256 277.227 68.7256C277.409 68.7256 277.566 68.7871 277.698 68.9102C277.83 69.0332 277.896 69.2223 277.896 69.4775C277.896 69.7327 277.83 69.9242 277.698 70.0518C277.566 70.1748 277.409 70.2363 277.227 70.2363C277.035 70.2363 276.876 70.1748 276.748 70.0518C276.62 69.9242 276.557 69.7327 276.557 69.4775ZM283.68 71.3848C284.664 71.3848 285.427 71.722 285.97 72.3965C286.517 73.0664 286.79 74.0166 286.79 75.2471C286.79 76.4775 286.514 77.4346 285.963 78.1182C285.416 78.7972 284.655 79.1367 283.68 79.1367C283.192 79.1367 282.745 79.0479 282.34 78.8701C281.939 78.6878 281.602 78.4098 281.328 78.0361H281.246L281.007 79H280.193V68.3633H281.328V70.9473C281.328 71.526 281.31 72.0456 281.273 72.5059H281.328C281.857 71.7585 282.641 71.3848 283.68 71.3848ZM283.516 72.335C282.741 72.335 282.183 72.5583 281.841 73.0049C281.499 73.4469 281.328 74.1943 281.328 75.2471C281.328 76.2998 281.504 77.054 281.854 77.5098C282.205 77.9609 282.768 78.1865 283.543 78.1865C284.24 78.1865 284.76 77.9336 285.102 77.4277C285.443 76.9173 285.614 76.1859 285.614 75.2334C285.614 74.2581 285.443 73.5312 285.102 73.0527C284.76 72.5742 284.231 72.335 283.516 72.335ZM289.914 79H288.779V68.3633H289.914V79ZM295.485 79.1367C294.378 79.1367 293.503 78.7995 292.86 78.125C292.222 77.4505 291.903 76.514 291.903 75.3154C291.903 74.1077 292.2 73.1484 292.792 72.4375C293.389 71.7266 294.189 71.3711 295.191 71.3711C296.13 71.3711 296.873 71.681 297.42 72.3008C297.967 72.916 298.24 73.7295 298.24 74.7412V75.459H293.079C293.102 76.3385 293.323 77.0062 293.742 77.4619C294.166 77.9176 294.761 78.1455 295.526 78.1455C296.333 78.1455 297.131 77.9769 297.919 77.6396V78.6514C297.518 78.8245 297.137 78.9476 296.777 79.0205C296.422 79.098 295.991 79.1367 295.485 79.1367ZM295.178 72.3213C294.576 72.3213 294.095 72.5173 293.735 72.9092C293.38 73.3011 293.17 73.8434 293.106 74.5361H297.023C297.023 73.8206 296.864 73.2738 296.545 72.8955C296.226 72.5127 295.77 72.3213 295.178 72.3213ZM306.238 78.2002C306.439 78.2002 306.632 78.1865 306.819 78.1592C307.006 78.1273 307.154 78.0954 307.264 78.0635V78.9316C307.141 78.9909 306.958 79.0387 306.717 79.0752C306.48 79.1162 306.266 79.1367 306.074 79.1367C304.625 79.1367 303.9 78.3734 303.9 76.8467V72.3896H302.827V71.8428L303.9 71.3711L304.379 69.7715H305.035V71.5078H307.209V72.3896H305.035V76.7988C305.035 77.25 305.142 77.5964 305.356 77.8379C305.571 78.0794 305.865 78.2002 306.238 78.2002ZM315.234 75.2471C315.234 76.4684 314.927 77.4232 314.312 78.1113C313.696 78.7949 312.846 79.1367 311.762 79.1367C311.092 79.1367 310.497 78.9795 309.978 78.665C309.458 78.3506 309.057 77.8994 308.774 77.3115C308.492 76.7236 308.351 76.0355 308.351 75.2471C308.351 74.0257 308.656 73.0755 309.267 72.3965C309.877 71.7129 310.725 71.3711 311.81 71.3711C312.858 71.3711 313.689 71.7197 314.305 72.417C314.924 73.1143 315.234 74.0576 315.234 75.2471ZM309.526 75.2471C309.526 76.2041 309.718 76.9333 310.101 77.4346C310.483 77.9359 311.046 78.1865 311.789 78.1865C312.532 78.1865 313.095 77.9382 313.478 77.4414C313.865 76.9401 314.059 76.2087 314.059 75.2471C314.059 74.2946 313.865 73.5723 313.478 73.0801C313.095 72.5833 312.527 72.335 311.775 72.335C311.033 72.335 310.472 72.5788 310.094 73.0664C309.715 73.554 309.526 74.2809 309.526 75.2471ZM324.032 79.1367C322.925 79.1367 322.05 78.7995 321.407 78.125C320.769 77.4505 320.45 76.514 320.45 75.3154C320.45 74.1077 320.746 73.1484 321.339 72.4375C321.936 71.7266 322.736 71.3711 323.738 71.3711C324.677 71.3711 325.42 71.681 325.967 72.3008C326.514 72.916 326.787 73.7295 326.787 74.7412V75.459H321.626C321.649 76.3385 321.87 77.0062 322.289 77.4619C322.713 77.9176 323.308 78.1455 324.073 78.1455C324.88 78.1455 325.677 77.9769 326.466 77.6396V78.6514C326.065 78.8245 325.684 78.9476 325.324 79.0205C324.969 79.098 324.538 79.1367 324.032 79.1367ZM323.725 72.3213C323.123 72.3213 322.642 72.5173 322.282 72.9092C321.927 73.3011 321.717 73.8434 321.653 74.5361H325.57C325.57 73.8206 325.411 73.2738 325.092 72.8955C324.773 72.5127 324.317 72.3213 323.725 72.3213ZM330.369 79L327.525 71.5078H328.742L330.355 75.9512C330.72 76.9902 330.934 77.6647 330.998 77.9746H331.053C331.103 77.7331 331.26 77.234 331.524 76.4775C331.793 75.7165 332.393 74.0599 333.322 71.5078H334.539L331.695 79H330.369ZM338.907 79.1367C337.8 79.1367 336.925 78.7995 336.282 78.125C335.644 77.4505 335.325 76.514 335.325 75.3154C335.325 74.1077 335.621 73.1484 336.214 72.4375C336.811 71.7266 337.611 71.3711 338.613 71.3711C339.552 71.3711 340.295 71.681 340.842 72.3008C341.389 72.916 341.662 73.7295 341.662 74.7412V75.459H336.501C336.524 76.3385 336.745 77.0062 337.164 77.4619C337.588 77.9176 338.183 78.1455 338.948 78.1455C339.755 78.1455 340.552 77.9769 341.341 77.6396V78.6514C340.94 78.8245 340.559 78.9476 340.199 79.0205C339.844 79.098 339.413 79.1367 338.907 79.1367ZM338.6 72.3213C337.998 72.3213 337.517 72.5173 337.157 72.9092C336.802 73.3011 336.592 73.8434 336.528 74.5361H340.445C340.445 73.8206 340.286 73.2738 339.967 72.8955C339.648 72.5127 339.192 72.3213 338.6 72.3213ZM347.021 71.3711C347.354 71.3711 347.653 71.3984 347.917 71.4531L347.76 72.5059C347.45 72.4375 347.176 72.4033 346.939 72.4033C346.333 72.4033 345.814 72.6494 345.381 73.1416C344.952 73.6338 344.738 74.2467 344.738 74.9805V79H343.604V71.5078H344.54L344.67 72.8955H344.725C345.003 72.4079 345.338 72.0319 345.729 71.7676C346.121 71.5033 346.552 71.3711 347.021 71.3711ZM348.129 71.5078H349.346L350.986 75.7803C351.346 76.7555 351.57 77.4596 351.656 77.8926H351.711C351.77 77.6602 351.893 77.2637 352.08 76.7031C352.271 76.138 352.891 74.4062 353.939 71.5078H355.156L351.937 80.0391C351.618 80.8822 351.244 81.4792 350.815 81.8301C350.392 82.1855 349.87 82.3633 349.25 82.3633C348.904 82.3633 348.562 82.3245 348.225 82.2471V81.3379C348.475 81.3926 348.756 81.4199 349.065 81.4199C349.845 81.4199 350.401 80.9824 350.733 80.1074L351.15 79.041L348.129 71.5078ZM362.84 75.2471C362.84 76.4684 362.532 77.4232 361.917 78.1113C361.302 78.7949 360.452 79.1367 359.367 79.1367C358.697 79.1367 358.103 78.9795 357.583 78.665C357.063 78.3506 356.662 77.8994 356.38 77.3115C356.097 76.7236 355.956 76.0355 355.956 75.2471C355.956 74.0257 356.261 73.0755 356.872 72.3965C357.483 71.7129 358.33 71.3711 359.415 71.3711C360.463 71.3711 361.295 71.7197 361.91 72.417C362.53 73.1143 362.84 74.0576 362.84 75.2471ZM357.132 75.2471C357.132 76.2041 357.323 76.9333 357.706 77.4346C358.089 77.9359 358.652 78.1865 359.395 78.1865C360.137 78.1865 360.7 77.9382 361.083 77.4414C361.47 76.9401 361.664 76.2087 361.664 75.2471C361.664 74.2946 361.47 73.5723 361.083 73.0801C360.7 72.5833 360.133 72.335 359.381 72.335C358.638 72.335 358.077 72.5788 357.699 73.0664C357.321 73.554 357.132 74.2809 357.132 75.2471ZM369.963 79V74.1533C369.963 73.5426 369.824 73.0869 369.546 72.7861C369.268 72.4854 368.833 72.335 368.24 72.335C367.456 72.335 366.882 72.5469 366.518 72.9707C366.153 73.3945 365.971 74.0941 365.971 75.0693V79H364.836V71.5078H365.759L365.943 72.5332H365.998C366.23 72.1641 366.556 71.8792 366.976 71.6787C367.395 71.4736 367.862 71.3711 368.377 71.3711C369.279 71.3711 369.958 71.5898 370.414 72.0273C370.87 72.4603 371.098 73.1553 371.098 74.1123V79H369.963ZM376.601 79.1367C375.493 79.1367 374.618 78.7995 373.976 78.125C373.338 77.4505 373.019 76.514 373.019 75.3154C373.019 74.1077 373.315 73.1484 373.907 72.4375C374.504 71.7266 375.304 71.3711 376.307 71.3711C377.245 71.3711 377.988 71.681 378.535 72.3008C379.082 72.916 379.355 73.7295 379.355 74.7412V75.459H374.194C374.217 76.3385 374.438 77.0062 374.857 77.4619C375.281 77.9176 375.876 78.1455 376.642 78.1455C377.448 78.1455 378.246 77.9769 379.034 77.6396V78.6514C378.633 78.8245 378.253 78.9476 377.893 79.0205C377.537 79.098 377.106 79.1367 376.601 79.1367ZM376.293 72.3213C375.691 72.3213 375.211 72.5173 374.851 72.9092C374.495 73.3011 374.285 73.8434 374.222 74.5361H378.139C378.139 73.8206 377.979 73.2738 377.66 72.8955C377.341 72.5127 376.885 72.3213 376.293 72.3213ZM381.133 78.2754C381.133 77.9701 381.201 77.7399 381.338 77.585C381.479 77.4255 381.68 77.3457 381.939 77.3457C382.204 77.3457 382.409 77.4255 382.555 77.585C382.705 77.7399 382.78 77.9701 382.78 78.2754C382.78 78.5716 382.705 78.7995 382.555 78.959C382.404 79.1185 382.199 79.1982 381.939 79.1982C381.707 79.1982 381.513 79.1276 381.358 78.9863C381.208 78.8405 381.133 78.6035 381.133 78.2754Z" fill="#AAAAAA"/>
<circle cx="82" cy="136" r="32" fill="#F33E5B"/>
<circle cx="166" cy="136" r="32" fill="#334DC3"/>
<circle cx="250" cy="136" r="32" fill="#252525"/>
<circle cx="334" cy="136" r="32" fill="#BBBBBB"/>
<circle cx="418" cy="136" r="32" fill="#F9F9F9"/>
<circle cx="849.5" cy="99.5" r="251" stroke="#E5E5E5"/>
<circle cx="830" cy="100" r="180.5" stroke="#E5E5E5"/>
<circle cx="936.5" cy="99.5" r="124" stroke="#E5E5E5"/>
<path d="M745.086 166.379L745.546 166.183L745.416 165.879H745.086V166.379ZM656.209 166.379V165.879H655.88L655.75 166.181L656.209 166.379ZM645.633 190.871L645.174 190.673L645.173 190.676L645.633 190.871ZM648.973 226.682L649.228 226.251L649.226 226.25L648.973 226.682ZM673.65 231.135H674.15V230.671L673.688 230.636L673.65 231.135ZM673.65 238V238.5H674.15V238H673.65ZM589.969 238H589.469V238.5H589.969V238ZM589.969 231.135L589.894 230.64L589.469 230.704V231.135H589.969ZM612.234 220.002L612.595 220.348L612.599 220.344L612.234 220.002ZM633.758 181.965L633.302 181.76L633.301 181.762L633.758 181.965ZM723.748 -18.7969V-19.2969H723.424L723.292 -19.0014L723.748 -18.7969ZM727.273 -18.7969L727.731 -18.9981L727.6 -19.2969H727.273V-18.7969ZM818.006 187.531L817.548 187.733L817.549 187.734L818.006 187.531ZM839.344 224.455L839.681 224.086L839.68 224.085L839.344 224.455ZM857.156 231.135H857.656V230.673L857.196 230.636L857.156 231.135ZM857.156 238V238.5H857.656V238H857.156ZM735.438 238H734.938V238.5H735.438V238ZM735.438 231.135V230.635H734.938V231.135H735.438ZM761.043 227.053L761.326 227.465L761.337 227.457L761.043 227.053ZM764.012 211.652L763.524 211.761L763.528 211.782L763.535 211.803L764.012 211.652ZM758.445 197.736L758.906 197.541L758.905 197.54L758.445 197.736ZM738.777 152.648V153.148H739.538L739.236 152.45L738.777 152.648ZM701.297 65.998L701.756 65.7995L701.304 64.7541L700.84 65.7946L701.297 65.998ZM662.703 152.648L662.246 152.445L661.933 153.148H662.703V152.648ZM745.086 165.879H656.209V166.879H745.086V165.879ZM655.75 166.181L645.174 190.673L646.092 191.069L656.668 166.577L655.75 166.181ZM645.173 190.676C641.698 198.866 639.938 205.679 639.938 211.096H640.938C640.938 205.874 642.641 199.204 646.093 191.066L645.173 190.676ZM639.938 211.096C639.938 218.309 642.864 223.676 648.72 227.113L649.226 226.25C643.701 223.008 640.938 217.984 640.938 211.096H639.938ZM648.718 227.112C650.47 228.15 653.438 229.028 657.558 229.771C661.695 230.518 667.048 231.138 673.613 231.633L673.688 230.636C667.141 230.142 661.825 229.525 657.736 228.787C653.63 228.046 650.815 227.192 649.228 226.251L648.718 227.112ZM673.15 231.135V238H674.15V231.135H673.15ZM673.65 237.5H589.969V238.5H673.65V237.5ZM590.469 238V231.135H589.469V238H590.469ZM590.043 231.629C599.172 230.254 606.698 226.496 612.595 220.348L611.874 219.656C606.143 225.63 598.825 229.295 589.894 230.64L590.043 231.629ZM612.599 220.344C618.477 214.091 625.681 201.339 634.215 182.168L633.301 181.762C624.765 200.937 617.619 213.543 611.87 219.659L612.599 220.344ZM634.214 182.169L724.204 -18.5924L723.292 -19.0014L633.302 181.76L634.214 182.169ZM723.748 -18.2969H727.273V-19.2969H723.748V-18.2969ZM726.816 -18.5956L817.548 187.733L818.464 187.33L727.731 -18.9981L726.816 -18.5956ZM817.549 187.734C821.882 197.515 825.833 205.496 829.402 211.671C832.965 217.837 836.166 222.236 839.007 224.825L839.68 224.085C836.955 221.603 833.817 217.312 830.267 211.17C826.723 205.037 822.788 197.092 818.463 187.329L817.549 187.734ZM839.007 224.825C843.319 228.756 849.375 231.009 857.116 231.633L857.196 230.636C849.599 230.024 843.78 227.823 839.681 224.086L839.007 224.825ZM856.656 231.135V238H857.656V231.135H856.656ZM857.156 237.5H735.438V238.5H857.156V237.5ZM735.938 238V231.135H734.938V238H735.938ZM735.438 231.635H740.447V230.635H735.438V231.635ZM740.447 231.635C750.235 231.635 757.234 230.278 761.326 227.465L760.76 226.641C756.935 229.27 750.204 230.635 740.447 230.635V231.635ZM761.337 227.457C764.202 225.373 765.625 222.369 765.625 218.518H764.625C764.625 222.088 763.326 224.774 760.749 226.648L761.337 227.457ZM765.625 218.518C765.625 216.235 765.244 213.896 764.489 211.502L763.535 211.803C764.263 214.11 764.625 216.347 764.625 218.518H765.625ZM764.5 211.544C764.365 210.938 763.82 209.456 762.899 207.153C761.969 204.829 760.638 201.624 758.906 197.541L757.985 197.932C759.716 202.012 761.044 205.209 761.97 207.524C762.905 209.86 763.411 211.253 763.524 211.761L764.5 211.544ZM758.905 197.54L745.546 166.183L744.626 166.575L757.985 197.932L758.905 197.54ZM739.236 152.45L701.756 65.7995L700.838 66.1965L738.318 152.847L739.236 152.45ZM700.84 65.7946L662.246 152.445L663.16 152.852L701.754 66.2015L700.84 65.7946ZM662.703 153.148H738.777V152.148H662.703V153.148ZM970.154 212.395L970.65 212.329L970.527 211.398L969.823 212.02L970.154 212.395ZM888.514 230.764L888.16 231.117L888.164 231.121L888.514 230.764ZM895.75 170.646L896.089 171.014L896.091 171.012L895.75 170.646ZM970.154 128.342L970.363 128.796L970.654 128.662V128.342H970.154ZM967.928 86.2227L967.462 86.4055L967.466 86.4157L967.471 86.4257L967.928 86.2227ZM959.949 77.3164L959.675 77.7345L959.684 77.7404L959.949 77.3164ZM926.736 78.8008L926.452 78.3893L926.452 78.3897L926.736 78.8008ZM927.107 96.2422L927.482 95.9111L927.478 95.907L927.107 96.2422ZM927.293 127.229L927.636 127.592L927.637 127.592L927.293 127.229ZM889.998 126.486L889.663 126.857L889.667 126.861L889.998 126.486ZM892.781 84.5527L893.157 84.8824L893.16 84.8795L892.781 84.5527ZM1000.58 69.8945L1000.29 70.2964L1000.29 70.3007L1000.58 69.8945ZM1019.32 92.5312L1019.8 92.3731L1019.8 92.3667L1019.32 92.5312ZM1022.85 210.725L1022.37 210.866L1022.37 210.874L1022.85 210.725ZM1025.63 215.178L1025.32 215.568L1025.63 215.178ZM1039.73 209.797L1040.05 209.406L1039.64 209.08L1039.33 209.502L1039.73 209.797ZM1045.3 214.25L1045.72 214.53L1045.97 214.148L1045.61 213.86L1045.3 214.25ZM1026 234.289L1026.27 234.714L1026.27 234.712L1026 234.289ZM980.359 233.547L980.037 233.929L980.042 233.933L980.359 233.547ZM970.154 198.85L970.478 199.231L970.654 199.081V198.85H970.154ZM970.154 140.773H970.654V139.9L969.901 140.342L970.154 140.773ZM936.756 168.977L936.352 168.682L936.351 168.684L936.756 168.977ZM935.643 204.23L936.009 203.891L936.006 203.887L935.643 204.23ZM969.823 212.02C948.705 230.668 929.833 239.912 913.191 239.912V240.912C930.196 240.912 949.299 231.478 970.485 212.769L969.823 212.02ZM913.191 239.912C903.415 239.912 895.319 236.74 888.864 230.407L888.164 231.121C894.821 237.652 903.176 240.912 913.191 240.912V239.912ZM888.867 230.41C882.41 223.953 879.18 215.919 879.18 206.271H878.18C878.18 216.168 881.505 224.462 888.16 231.117L888.867 230.41ZM879.18 206.271C879.18 193.199 884.792 181.451 896.089 171.014L895.411 170.279C883.947 180.871 878.18 192.872 878.18 206.271H879.18ZM896.091 171.012C907.404 160.437 932.133 146.365 970.363 128.796L969.946 127.887C931.73 145.449 906.856 159.58 895.409 170.281L896.091 171.012ZM970.654 128.342V110.9H969.654V128.342H970.654ZM970.654 110.9C970.654 104.337 970.469 98.986 970.096 94.852C969.724 90.7358 969.163 87.7714 968.385 86.0196L967.471 86.4257C968.177 88.0137 968.729 90.8323 969.1 94.9419C969.469 99.0339 969.654 104.352 969.654 110.9H970.654ZM968.393 86.0398C966.984 82.4535 964.24 79.4086 960.214 76.8924L959.684 77.7404C963.575 80.1722 966.15 83.0647 967.462 86.4055L968.393 86.0398ZM960.224 76.8984C956.18 74.2448 951.631 72.9199 946.59 72.9199V73.9199C951.445 73.9199 955.802 75.1927 959.675 77.7344L960.224 76.8984ZM946.59 72.9199C938.476 72.9199 931.751 74.7305 926.452 78.3893L927.02 79.2122C932.112 75.6966 938.623 73.9199 946.59 73.9199V72.9199ZM926.452 78.3897C923.148 80.6769 921.412 83.4107 921.412 86.5938H922.412C922.412 83.8393 923.892 81.3778 927.021 79.2119L926.452 78.3897ZM921.412 86.5938C921.412 89.3906 923.26 92.7288 926.736 96.5773L927.478 95.907C924.027 92.0863 922.412 88.9922 922.412 86.5938H921.412ZM926.733 96.5733C931.387 101.84 933.658 106.86 933.658 111.643H934.658C934.658 106.529 932.229 101.282 927.482 95.9111L926.733 96.5733ZM933.658 111.643C933.658 117.56 931.431 122.626 926.949 126.865L927.637 127.592C932.309 123.172 934.658 117.847 934.658 111.643H933.658ZM926.95 126.865C922.607 130.967 916.863 133.037 909.666 133.037V134.037C917.066 134.037 923.073 131.902 927.636 127.592L926.95 126.865ZM909.666 133.037C901.982 133.037 895.548 130.723 890.329 126.112L889.667 126.861C895.087 131.65 901.764 134.037 909.666 134.037V133.037ZM890.334 126.116C885.23 121.498 882.705 116.123 882.705 109.973H881.705C881.705 116.439 884.375 122.073 889.663 126.857L890.334 126.116ZM882.705 109.973C882.705 101.211 886.17 92.8508 893.157 84.8824L892.405 84.2231C885.291 92.3354 881.705 100.922 881.705 109.973H882.705ZM893.16 84.8795C900.14 76.7966 909.892 70.5929 922.445 66.2854L922.121 65.3396C909.44 69.691 899.524 75.9807 892.403 84.2259L893.16 84.8795ZM922.445 66.2854C935.009 61.9743 948.066 59.8184 961.619 59.8184V58.8184C947.958 58.8184 934.791 60.9919 922.121 65.3396L922.445 66.2854ZM961.619 59.8184C978.004 59.8184 990.876 63.3299 1000.29 70.2964L1000.88 69.4927C991.243 62.3576 978.137 58.8184 961.619 58.8184V59.8184ZM1000.29 70.3007C1009.89 77.1896 1016.05 84.6592 1018.85 92.6958L1019.8 92.3667C1016.91 84.0752 1010.58 76.4536 1000.88 69.4884L1000.29 70.3007ZM1018.85 92.6894C1019.69 95.2234 1020.34 99.4526 1020.77 105.417C1021.21 111.368 1021.42 119.009 1021.42 128.342H1022.42C1022.42 118.996 1022.21 111.329 1021.77 105.344C1021.34 99.3713 1020.69 95.0344 1019.8 92.3731L1018.85 92.6894ZM1021.42 128.342V195.695H1022.42V128.342H1021.42ZM1021.42 195.695C1021.42 199.659 1021.5 202.902 1021.65 205.421C1021.81 207.928 1022.04 209.756 1022.37 210.866L1023.33 210.584C1023.04 209.591 1022.81 207.862 1022.65 205.359C1022.5 202.869 1022.42 199.648 1022.42 195.695H1021.42ZM1022.37 210.874C1023.01 212.919 1023.98 214.5 1025.32 215.568L1025.95 214.787C1024.81 213.877 1023.92 212.489 1023.33 210.575L1022.37 210.874ZM1025.32 215.568C1026.65 216.63 1028.18 217.162 1029.9 217.162V216.162C1028.4 216.162 1027.09 215.705 1025.95 214.787L1025.32 215.568ZM1029.9 217.162C1033.37 217.162 1036.77 214.702 1040.14 210.092L1039.33 209.502C1036.02 214.045 1032.87 216.162 1029.9 216.162V217.162ZM1039.42 210.187L1044.99 214.64L1045.61 213.86L1040.05 209.406L1039.42 210.187ZM1044.89 213.97C1038.73 223.088 1032.34 229.709 1025.74 233.866L1026.27 234.712C1033.03 230.458 1039.51 223.72 1045.72 214.53L1044.89 213.97ZM1025.74 233.865C1019.27 237.893 1011.88 239.912 1003.55 239.912V240.912C1012.05 240.912 1019.63 238.849 1026.27 234.714L1025.74 233.865ZM1003.55 239.912C993.73 239.912 986.126 237.641 980.677 233.161L980.042 233.933C985.726 238.607 993.584 240.912 1003.55 240.912V239.912ZM980.682 233.165C975.237 228.567 971.876 221.645 970.65 212.329L969.659 212.46C970.907 221.946 974.349 229.126 980.037 233.929L980.682 233.165ZM970.654 198.85V140.773H969.654V198.85H970.654ZM969.901 140.342C954.897 149.147 943.703 158.59 936.352 168.682L937.16 169.271C944.405 159.324 955.477 149.965 970.407 141.205L969.901 140.342ZM936.351 168.684C931.478 175.43 929.02 182.272 929.02 189.201H930.02C930.02 182.523 932.385 175.882 937.161 169.269L936.351 168.684ZM929.02 189.201C929.02 195.025 931.114 200.156 935.279 204.573L936.006 203.887C932.007 199.646 930.02 194.757 930.02 189.201H929.02ZM935.276 204.57C938.483 208.034 942.959 209.74 948.631 209.74V208.74C943.17 208.74 938.987 207.106 936.009 203.891L935.276 204.57ZM948.631 209.74C954.994 209.74 962.283 206.184 970.478 199.231L969.831 198.468C961.697 205.37 954.637 208.74 948.631 208.74V209.74Z" fill="#E5E5E5"/>
</g>
<defs>
<clipPath id="clip0">
<rect width="1080" height="200" fill="white"/>
</clipPath>
</defs>
</svg>
