<svg width="1080" height="60" viewBox="0 0 1080 60" fill="none" xmlns="http://www.w3.org/2000/svg">
<rect width="1080" height="60" fill="white"/>
<line x1="135" y1="16.5" x2="915" y2="16.5" stroke="#E4E4E4"/>
<circle cx="141" cy="16.5" r="7.5" fill="#C4C4C4"/>
<circle cx="141" cy="16.5" r="5.5" fill="#E4E4E4"/>
<circle cx="141" cy="16.5" r="2.5" fill="white"/>
<path d="M88.2257 33.9091V42.3594C88.2257 44.1364 86.9984 45.4148 85.0041 45.4148C83.0162 45.4148 81.7825 44.1364 81.7825 42.3594V33.9091H79.8074V42.5192C79.8074 45.2678 81.8656 47.2173 85.0041 47.2173C88.1426 47.2173 90.2072 45.2678 90.2072 42.5192V33.9091H88.2257ZM100.283 39.5788C99.8864 38.0511 98.6911 37.054 96.5689 37.054C94.3509 37.054 92.7784 38.2237 92.7784 39.9624C92.7784 41.3558 93.6222 42.2827 95.4631 42.6918L97.125 43.0561C98.071 43.267 98.5121 43.6889 98.5121 44.3026C98.5121 45.0632 97.7003 45.6577 96.4474 45.6577C95.3033 45.6577 94.5682 45.1655 94.3381 44.2003L92.4908 44.4815C92.8104 46.2202 94.255 47.1982 96.4602 47.1982C98.8317 47.1982 100.474 45.9389 100.474 44.1619C100.474 42.7749 99.5923 41.9183 97.7898 41.5028L96.2301 41.1449C95.1499 40.8892 94.6832 40.5249 94.6896 39.8601C94.6832 39.1058 95.5014 38.5689 96.5881 38.5689C97.777 38.5689 98.3267 39.2273 98.5504 39.8857L100.283 39.5788ZM106.807 47.1982C108.949 47.1982 110.464 46.1435 110.898 44.5455L109.089 44.2195C108.744 45.1463 107.913 45.6193 106.827 45.6193C105.19 45.6193 104.091 44.5582 104.04 42.6662H111.02V41.9886C111.02 38.4411 108.898 37.054 106.673 37.054C103.937 37.054 102.135 39.1378 102.135 42.1548C102.135 45.2038 103.912 47.1982 106.807 47.1982ZM104.046 41.2344C104.123 39.8409 105.133 38.6328 106.686 38.6328C108.169 38.6328 109.14 39.7322 109.147 41.2344H104.046ZM113.14 47H115.051V41.0043C115.051 39.7195 116.042 38.7926 117.397 38.7926C117.794 38.7926 118.241 38.8629 118.395 38.9077V37.0795C118.203 37.054 117.826 37.0348 117.583 37.0348C116.432 37.0348 115.448 37.6868 115.09 38.7415H114.988V37.1818H113.14V47ZM124.966 47H126.941V42.0462H129.625C129.67 42.0462 129.708 42.0462 129.753 42.0462L132.412 47H134.662L131.76 41.701C133.365 41.1065 134.164 39.7706 134.164 38.0128C134.164 35.603 132.668 33.9091 129.632 33.9091H124.966V47ZM126.941 40.3459V35.603H129.421C131.37 35.603 132.176 36.5298 132.176 38.0128C132.176 39.4893 131.37 40.3459 129.446 40.3459H126.941ZM140.522 47.1982C142.664 47.1982 144.178 46.1435 144.613 44.5455L142.804 44.2195C142.459 45.1463 141.628 45.6193 140.541 45.6193C138.905 45.6193 137.806 44.5582 137.754 42.6662H144.735V41.9886C144.735 38.4411 142.612 37.054 140.388 37.054C137.652 37.054 135.85 39.1378 135.85 42.1548C135.85 45.2038 137.627 47.1982 140.522 47.1982ZM137.761 41.2344C137.838 39.8409 138.847 38.6328 140.401 38.6328C141.884 38.6328 142.855 39.7322 142.862 41.2344H137.761ZM154.212 39.5788C153.816 38.0511 152.621 37.054 150.499 37.054C148.281 37.054 146.708 38.2237 146.708 39.9624C146.708 41.3558 147.552 42.2827 149.393 42.6918L151.055 43.0561C152.001 43.267 152.442 43.6889 152.442 44.3026C152.442 45.0632 151.63 45.6577 150.377 45.6577C149.233 45.6577 148.498 45.1655 148.268 44.2003L146.42 44.4815C146.74 46.2202 148.185 47.1982 150.39 47.1982C152.761 47.1982 154.404 45.9389 154.404 44.1619C154.404 42.7749 153.522 41.9183 151.719 41.5028L150.16 41.1449C149.08 40.8892 148.613 40.5249 148.619 39.8601C148.613 39.1058 149.431 38.5689 150.518 38.5689C151.707 38.5689 152.256 39.2273 152.48 39.8857L154.212 39.5788ZM160.737 47.1982C162.878 47.1982 164.393 46.1435 164.828 44.5455L163.019 44.2195C162.674 45.1463 161.843 45.6193 160.756 45.6193C159.12 45.6193 158.02 44.5582 157.969 42.6662H164.949V41.9886C164.949 38.4411 162.827 37.054 160.603 37.054C157.867 37.054 156.064 39.1378 156.064 42.1548C156.064 45.2038 157.841 47.1982 160.737 47.1982ZM157.976 41.2344C158.052 39.8409 159.062 38.6328 160.616 38.6328C162.099 38.6328 163.07 39.7322 163.077 41.2344H157.976ZM169.927 47.2173C171.551 47.2173 172.465 46.3928 172.829 45.6577H172.906V47H174.772V40.4801C174.772 37.6229 172.522 37.054 170.963 37.054C169.186 37.054 167.549 37.7699 166.91 39.5597L168.706 39.9688C168.988 39.272 169.703 38.6009 170.988 38.6009C172.222 38.6009 172.855 39.2464 172.855 40.3587V40.4034C172.855 41.1001 172.139 41.0874 170.375 41.2919C168.515 41.5092 166.61 41.995 166.61 44.2259C166.61 46.1562 168.061 47.2173 169.927 47.2173ZM170.343 45.6832C169.262 45.6832 168.483 45.1974 168.483 44.2514C168.483 43.2287 169.39 42.8643 170.496 42.7173C171.116 42.6342 172.586 42.468 172.861 42.1932V43.4588C172.861 44.6222 171.934 45.6832 170.343 45.6832ZM177.318 47H179.229V41.0043C179.229 39.7195 180.22 38.7926 181.575 38.7926C181.971 38.7926 182.419 38.8629 182.572 38.9077V37.0795C182.381 37.054 182.003 37.0348 181.76 37.0348C180.61 37.0348 179.626 37.6868 179.268 38.7415H179.165V37.1818H177.318V47ZM188.01 47.1982C190.331 47.1982 191.833 45.8047 192.044 43.8935H190.184C189.941 44.9545 189.116 45.581 188.023 45.581C186.406 45.581 185.364 44.2322 185.364 42.0909C185.364 39.9879 186.425 38.6648 188.023 38.6648C189.238 38.6648 189.979 39.4318 190.184 40.3523H192.044C191.839 38.3707 190.222 37.054 187.991 37.054C185.223 37.054 183.434 39.1378 183.434 42.1357C183.434 45.0952 185.159 47.1982 188.01 47.1982ZM195.999 41.1705C195.999 39.6044 196.99 38.7095 198.351 38.7095C199.668 38.7095 200.454 39.5469 200.454 40.9851V47H202.365V40.755C202.365 38.3068 201.023 37.054 199.003 37.054C197.475 37.054 196.555 37.7188 196.095 38.7798H195.973V33.9091H194.088V47H195.999V41.1705Z" fill="black"/>
<circle cx="397" cy="16.5" r="7.5" fill="#C4C4C4"/>
<circle cx="397" cy="16.5" r="5.5" fill="#E4E4E4"/>
<circle cx="397" cy="16.5" r="2.5" fill="white"/>
<path d="M277.155 47H279.149L281.904 37.1946H282.006L284.761 47H286.749L290.386 33.9091H288.302L285.758 44.0533H285.637L282.984 33.9091H280.926L278.273 44.0469H278.152L275.601 33.9091H273.524L277.155 47ZM292.034 47H293.945V37.1818H292.034V47ZM292.999 35.6669C293.657 35.6669 294.207 35.1555 294.207 34.5291C294.207 33.9027 293.657 33.3849 292.999 33.3849C292.334 33.3849 291.791 33.9027 291.791 34.5291C291.791 35.1555 292.334 35.6669 292.999 35.6669ZM296.516 47H298.427V41.0043C298.427 39.7195 299.418 38.7926 300.773 38.7926C301.17 38.7926 301.617 38.8629 301.771 38.9077V37.0795C301.579 37.054 301.202 37.0348 300.959 37.0348C299.808 37.0348 298.824 37.6868 298.466 38.7415H298.364V37.1818H296.516V47ZM307.304 47.1982C309.446 47.1982 310.961 46.1435 311.395 44.5455L309.586 44.2195C309.241 45.1463 308.41 45.6193 307.324 45.6193C305.687 45.6193 304.588 44.5582 304.537 42.6662H311.517V41.9886C311.517 38.4411 309.395 37.054 307.17 37.054C304.434 37.054 302.632 39.1378 302.632 42.1548C302.632 45.2038 304.409 47.1982 307.304 47.1982ZM304.543 41.2344C304.62 39.8409 305.63 38.6328 307.183 38.6328C308.666 38.6328 309.638 39.7322 309.644 41.2344H304.543ZM318.31 37.1818H316.194V36.2997C316.194 35.4304 316.552 34.9574 317.485 34.9574C317.882 34.9574 318.163 35.0469 318.342 35.1044L318.789 33.5575C318.521 33.4553 317.965 33.2955 317.191 33.2955C315.638 33.2955 314.277 34.2031 314.277 36.044V37.1818H312.762V38.7159H314.277V47H316.194V38.7159H318.31V37.1818ZM320.282 47H322.193V41.0043C322.193 39.7195 323.184 38.7926 324.539 38.7926C324.935 38.7926 325.383 38.8629 325.536 38.9077V37.0795C325.344 37.054 324.967 37.0348 324.724 37.0348C323.574 37.0348 322.589 37.6868 322.231 38.7415H322.129V37.1818H320.282V47ZM329.959 47.2173C331.583 47.2173 332.497 46.3928 332.861 45.6577H332.938V47H334.805V40.4801C334.805 37.6229 332.555 37.054 330.995 37.054C329.218 37.054 327.582 37.7699 326.942 39.5597L328.739 39.9688C329.02 39.272 329.736 38.6009 331.021 38.6009C332.254 38.6009 332.887 39.2464 332.887 40.3587V40.4034C332.887 41.1001 332.171 41.0874 330.407 41.2919C328.547 41.5092 326.642 41.995 326.642 44.2259C326.642 46.1562 328.093 47.2173 329.959 47.2173ZM330.375 45.6832C329.295 45.6832 328.515 45.1974 328.515 44.2514C328.515 43.2287 329.422 42.8643 330.528 42.7173C331.148 42.6342 332.619 42.468 332.893 42.1932V43.4588C332.893 44.6222 331.967 45.6832 330.375 45.6832ZM337.35 47H339.261V40.9467C339.261 39.6236 340.188 38.7031 341.275 38.7031C342.336 38.7031 343.071 39.4062 343.071 40.4737V47H344.976V40.7422C344.976 39.5597 345.698 38.7031 346.945 38.7031C347.955 38.7031 348.786 39.2656 348.786 40.5952V47H350.697V40.4162C350.697 38.1726 349.444 37.054 347.667 37.054C346.254 37.054 345.193 37.7315 344.72 38.7798H344.618C344.19 37.706 343.288 37.054 341.978 37.054C340.68 37.054 339.715 37.6996 339.306 38.7798H339.185V37.1818H337.35V47ZM353.258 47H355.17V37.1818H353.258V47ZM354.224 35.6669C354.882 35.6669 355.432 35.1555 355.432 34.5291C355.432 33.9027 354.882 33.3849 354.224 33.3849C353.559 33.3849 353.016 33.9027 353.016 34.5291C353.016 35.1555 353.559 35.6669 354.224 35.6669ZM359.652 41.1705C359.652 39.6044 360.611 38.7095 361.94 38.7095C363.238 38.7095 364.024 39.5597 364.024 40.9851V47H365.935V40.755C365.935 38.326 364.6 37.054 362.592 37.054C361.116 37.054 360.151 37.7379 359.697 38.7798H359.575V37.1818H357.741V47H359.652V41.1705ZM372.615 50.8864C375.114 50.8864 377.045 49.7422 377.045 47.2173V37.1818H375.172V38.7734H375.031C374.693 38.1662 374.015 37.054 372.187 37.054C369.815 37.054 368.07 38.9268 368.07 42.0526C368.07 45.1847 369.854 46.853 372.174 46.853C373.977 46.853 374.673 45.8366 375.019 45.2102H375.14V47.1406C375.14 48.6811 374.085 49.3459 372.634 49.3459C371.043 49.3459 370.423 48.5469 370.084 47.9844L368.441 48.6619C368.959 49.8636 370.269 50.8864 372.615 50.8864ZM372.596 45.2678C370.889 45.2678 370.001 43.9574 370.001 42.027C370.001 40.1413 370.87 38.6776 372.596 38.6776C374.264 38.6776 375.159 40.0391 375.159 42.027C375.159 44.0533 374.245 45.2678 372.596 45.2678ZM387.229 47.2173C388.853 47.2173 389.767 46.3928 390.131 45.6577H390.208V47H392.074V40.4801C392.074 37.6229 389.824 37.054 388.264 37.054C386.487 37.054 384.851 37.7699 384.212 39.5597L386.008 39.9688C386.289 39.272 387.005 38.6009 388.29 38.6009C389.524 38.6009 390.157 39.2464 390.157 40.3587V40.4034C390.157 41.1001 389.441 41.0874 387.676 41.2919C385.816 41.5092 383.911 41.995 383.911 44.2259C383.911 46.1562 385.362 47.2173 387.229 47.2173ZM387.644 45.6832C386.564 45.6832 385.784 45.1974 385.784 44.2514C385.784 43.2287 386.692 42.8643 387.798 42.7173C388.418 42.6342 389.888 42.468 390.163 42.1932V43.4588C390.163 44.6222 389.236 45.6832 387.644 45.6832ZM396.531 41.1705C396.531 39.6044 397.49 38.7095 398.819 38.7095C400.117 38.7095 400.903 39.5597 400.903 40.9851V47H402.814V40.755C402.814 38.326 401.478 37.054 399.471 37.054C397.995 37.054 397.03 37.7379 396.576 38.7798H396.454V37.1818H394.62V47H396.531V41.1705ZM409.053 47.1918C410.843 47.1918 411.546 46.0987 411.891 45.4723H412.051V47H413.917V33.9091H412.006V38.7734H411.891C411.546 38.1662 410.894 37.054 409.066 37.054C406.694 37.054 404.949 38.9268 404.949 42.1101C404.949 45.2869 406.669 47.1918 409.053 47.1918ZM409.475 45.5618C407.768 45.5618 406.88 44.0597 406.88 42.0909C406.88 40.1413 407.749 38.6776 409.475 38.6776C411.143 38.6776 412.038 40.0391 412.038 42.0909C412.038 44.1555 411.124 45.5618 409.475 45.5618ZM421.562 47H423.537V42.3977H426.222C429.258 42.3977 430.76 40.5632 430.76 38.147C430.76 35.7372 429.271 33.9091 426.228 33.9091H421.562V47ZM423.537 40.723V35.603H426.017C427.973 35.603 428.772 36.6641 428.772 38.147C428.772 39.63 427.973 40.723 426.043 40.723H423.537ZM432.922 47H434.834V41.0043C434.834 39.7195 435.824 38.7926 437.18 38.7926C437.576 38.7926 438.023 38.8629 438.177 38.9077V37.0795C437.985 37.054 437.608 37.0348 437.365 37.0348C436.214 37.0348 435.23 37.6868 434.872 38.7415H434.77V37.1818H432.922V47ZM443.615 47.1982C446.383 47.1982 448.191 45.1719 448.191 42.1357C448.191 39.0803 446.383 37.054 443.615 37.054C440.847 37.054 439.038 39.0803 439.038 42.1357C439.038 45.1719 440.847 47.1982 443.615 47.1982ZM443.621 45.5938C441.812 45.5938 440.968 44.0149 440.968 42.1293C440.968 40.25 441.812 38.652 443.621 38.652C445.417 38.652 446.261 40.25 446.261 42.1293C446.261 44.0149 445.417 45.5938 443.621 45.5938ZM454.908 37.1818H452.894V34.8295H450.983V37.1818H449.545V38.7159H450.983V44.5135C450.977 46.2969 452.338 47.1598 453.847 47.1278C454.454 47.1214 454.863 47.0064 455.087 46.9233L454.742 45.3445C454.614 45.37 454.377 45.4276 454.071 45.4276C453.451 45.4276 452.894 45.223 452.894 44.1172V38.7159H454.908V37.1818ZM461.052 47.1982C463.82 47.1982 465.629 45.1719 465.629 42.1357C465.629 39.0803 463.82 37.054 461.052 37.054C458.285 37.054 456.476 39.0803 456.476 42.1357C456.476 45.1719 458.285 47.1982 461.052 47.1982ZM461.059 45.5938C459.25 45.5938 458.406 44.0149 458.406 42.1293C458.406 40.25 459.25 38.652 461.059 38.652C462.855 38.652 463.699 40.25 463.699 42.1293C463.699 44.0149 462.855 45.5938 461.059 45.5938ZM472.345 37.1818H470.332V34.8295H468.421V37.1818H466.983V38.7159H468.421V44.5135C468.414 46.2969 469.776 47.1598 471.284 47.1278C471.892 47.1214 472.301 47.0064 472.524 46.9233L472.179 45.3445C472.051 45.37 471.815 45.4276 471.508 45.4276C470.888 45.4276 470.332 45.223 470.332 44.1172V38.7159H472.345V37.1818ZM475.668 50.6818C477.247 50.6818 478.244 49.8572 478.813 48.3104L482.872 37.201L480.807 37.1818L478.32 44.8011H478.218L475.732 37.1818H473.686L477.278 47.1278L477.042 47.7798C476.556 49.0838 475.872 49.1925 474.824 48.9048L474.364 50.4709C474.594 50.5732 475.092 50.6818 475.668 50.6818ZM484.672 50.6818H486.584V45.4723H486.699C487.044 46.0987 487.747 47.1918 489.537 47.1918C491.915 47.1918 493.641 45.2869 493.641 42.1101C493.641 38.9268 491.889 37.054 489.518 37.054C487.696 37.054 487.038 38.1662 486.699 38.7734H486.539V37.1818H484.672V50.6818ZM486.545 42.0909C486.545 40.0391 487.44 38.6776 489.109 38.6776C490.841 38.6776 491.71 40.1413 491.71 42.0909C491.71 44.0597 490.815 45.5618 489.109 45.5618C487.466 45.5618 486.545 44.1555 486.545 42.0909ZM495.782 47H497.693V37.1818H495.782V47ZM496.747 35.6669C497.405 35.6669 497.955 35.1555 497.955 34.5291C497.955 33.9027 497.405 33.3849 496.747 33.3849C496.082 33.3849 495.539 33.9027 495.539 34.5291C495.539 35.1555 496.082 35.6669 496.747 35.6669ZM502.176 41.1705C502.176 39.6044 503.134 38.7095 504.464 38.7095C505.761 38.7095 506.548 39.5597 506.548 40.9851V47H508.459V40.755C508.459 38.326 507.123 37.054 505.116 37.054C503.639 37.054 502.674 37.7379 502.22 38.7798H502.099V37.1818H500.264V47H502.176V41.1705ZM515.139 50.8864C517.638 50.8864 519.568 49.7422 519.568 47.2173V37.1818H517.695V38.7734H517.555C517.216 38.1662 516.538 37.054 514.71 37.054C512.339 37.054 510.594 38.9268 510.594 42.0526C510.594 45.1847 512.377 46.853 514.698 46.853C516.5 46.853 517.197 45.8366 517.542 45.2102H517.663V47.1406C517.663 48.6811 516.609 49.3459 515.158 49.3459C513.566 49.3459 512.946 48.5469 512.607 47.9844L510.965 48.6619C511.482 49.8636 512.793 50.8864 515.139 50.8864ZM515.119 45.2678C513.413 45.2678 512.524 43.9574 512.524 42.027C512.524 40.1413 513.394 38.6776 515.119 38.6776C516.788 38.6776 517.683 40.0391 517.683 42.027C517.683 44.0533 516.769 45.2678 515.119 45.2678Z" fill="black"/>
<circle cx="653" cy="16.5" r="7.5" fill="#C4C4C4"/>
<circle cx="653" cy="16.5" r="5.5" fill="#E4E4E4"/>
<circle cx="653" cy="16.5" r="2.5" fill="white"/>
<path d="M602.161 47C606.15 47 608.458 44.5263 608.458 40.4354C608.458 36.3636 606.15 33.9091 602.296 33.9091H597.924V47H602.161ZM599.899 45.2741V35.6349H602.174C605.038 35.6349 606.514 37.348 606.514 40.4354C606.514 43.5355 605.038 45.2741 602.053 45.2741H599.899ZM614.992 47.1982C617.133 47.1982 618.648 46.1435 619.083 44.5455L617.274 44.2195C616.929 45.1463 616.098 45.6193 615.011 45.6193C613.375 45.6193 612.275 44.5582 612.224 42.6662H619.204V41.9886C619.204 38.4411 617.082 37.054 614.858 37.054C612.122 37.054 610.319 39.1378 610.319 42.1548C610.319 45.2038 612.096 47.1982 614.992 47.1982ZM612.231 41.2344C612.307 39.8409 613.317 38.6328 614.87 38.6328C616.353 38.6328 617.325 39.7322 617.331 41.2344H612.231ZM629.425 37.1818H627.373L624.893 44.7372H624.791L622.304 37.1818H620.253L623.819 47H625.865L629.425 37.1818ZM635.101 47.1982C637.243 47.1982 638.758 46.1435 639.192 44.5455L637.383 44.2195C637.038 45.1463 636.207 45.6193 635.12 45.6193C633.484 45.6193 632.385 44.5582 632.334 42.6662H639.314V41.9886C639.314 38.4411 637.191 37.054 634.967 37.054C632.231 37.054 630.429 39.1378 630.429 42.1548C630.429 45.2038 632.206 47.1982 635.101 47.1982ZM632.34 41.2344C632.417 39.8409 633.427 38.6328 634.98 38.6328C636.463 38.6328 637.434 39.7322 637.441 41.2344H632.34ZM643.345 33.9091H641.434V47H643.345V33.9091ZM650.052 47.1982C652.82 47.1982 654.629 45.1719 654.629 42.1357C654.629 39.0803 652.82 37.054 650.052 37.054C647.285 37.054 645.476 39.0803 645.476 42.1357C645.476 45.1719 647.285 47.1982 650.052 47.1982ZM650.059 45.5938C648.25 45.5938 647.406 44.0149 647.406 42.1293C647.406 40.25 648.25 38.652 650.059 38.652C651.855 38.652 652.699 40.25 652.699 42.1293C652.699 44.0149 651.855 45.5938 650.059 45.5938ZM656.762 50.6818H658.674V45.4723H658.789C659.134 46.0987 659.837 47.1918 661.627 47.1918C664.005 47.1918 665.73 45.2869 665.73 42.1101C665.73 38.9268 663.979 37.054 661.608 37.054C659.786 37.054 659.127 38.1662 658.789 38.7734H658.629V37.1818H656.762V50.6818ZM658.635 42.0909C658.635 40.0391 659.53 38.6776 661.198 38.6776C662.931 38.6776 663.8 40.1413 663.8 42.0909C663.8 44.0597 662.905 45.5618 661.198 45.5618C659.556 45.5618 658.635 44.1555 658.635 42.0909ZM667.872 47H669.783V40.9467C669.783 39.6236 670.71 38.7031 671.796 38.7031C672.858 38.7031 673.593 39.4062 673.593 40.4737V47H675.497V40.7422C675.497 39.5597 676.22 38.7031 677.466 38.7031C678.476 38.7031 679.307 39.2656 679.307 40.5952V47H681.218V40.4162C681.218 38.1726 679.965 37.054 678.188 37.054C676.776 37.054 675.715 37.7315 675.242 38.7798H675.139C674.711 37.706 673.81 37.054 672.5 37.054C671.202 37.054 670.237 37.6996 669.828 38.7798H669.706V37.1818H667.872V47ZM688.011 47.1982C690.153 47.1982 691.668 46.1435 692.102 44.5455L690.293 44.2195C689.948 45.1463 689.117 45.6193 688.031 45.6193C686.394 45.6193 685.295 44.5582 685.244 42.6662H692.224V41.9886C692.224 38.4411 690.102 37.054 687.877 37.054C685.141 37.054 683.339 39.1378 683.339 42.1548C683.339 45.2038 685.116 47.1982 688.011 47.1982ZM685.25 41.2344C685.327 39.8409 686.337 38.6328 687.89 38.6328C689.373 38.6328 690.345 39.7322 690.351 41.2344H685.25ZM696.256 41.1705C696.256 39.6044 697.214 38.7095 698.544 38.7095C699.842 38.7095 700.628 39.5597 700.628 40.9851V47H702.539V40.755C702.539 38.326 701.203 37.054 699.196 37.054C697.719 37.054 696.754 37.7379 696.3 38.7798H696.179V37.1818H694.344V47H696.256V41.1705ZM709.685 37.1818H707.672V34.8295H705.761V37.1818H704.322V38.7159H705.761V44.5135C705.754 46.2969 707.116 47.1598 708.624 47.1278C709.231 47.1214 709.641 47.0064 709.864 46.9233L709.519 45.3445C709.391 45.37 709.155 45.4276 708.848 45.4276C708.228 45.4276 707.672 45.223 707.672 44.1172V38.7159H709.685V37.1818Z" fill="black"/>
<circle cx="909" cy="16.5" r="7.5" fill="#C4C4C4"/>
<circle cx="909" cy="16.5" r="5.5" fill="#E4E4E4"/>
<circle cx="909" cy="16.5" r="2.5" fill="white"/>
<path d="M882.979 40.4545C882.979 36.2678 880.473 33.7301 877.085 33.7301C873.685 33.7301 871.185 36.2678 871.185 40.4545C871.185 44.6349 873.685 47.179 877.085 47.179C880.473 47.179 882.979 44.6413 882.979 40.4545ZM881.023 40.4545C881.023 43.6442 879.335 45.3764 877.085 45.3764C874.829 45.3764 873.148 43.6442 873.148 40.4545C873.148 37.2649 874.829 35.5327 877.085 35.5327C879.335 35.5327 881.023 37.2649 881.023 40.4545ZM891.507 42.9283C891.514 44.5966 890.274 45.3892 889.2 45.3892C888.017 45.3892 887.199 44.5327 887.199 43.1967V37.1818H885.288V43.4268C885.288 45.8622 886.624 47.1278 888.509 47.1278C889.986 47.1278 890.989 46.348 891.443 45.2997H891.546V47H893.425V37.1818H891.507V42.9283ZM900.576 37.1818H898.562V34.8295H896.651V37.1818H895.213V38.7159H896.651V44.5135C896.645 46.2969 898.006 47.1598 899.515 47.1278C900.122 47.1214 900.531 47.0064 900.755 46.9233L900.41 45.3445C900.282 45.37 900.045 45.4276 899.739 45.4276C899.119 45.4276 898.562 45.223 898.562 44.1172V38.7159H900.576V37.1818ZM906.72 47.1982C909.041 47.1982 910.543 45.8047 910.754 43.8935H908.894C908.651 44.9545 907.826 45.581 906.733 45.581C905.116 45.581 904.074 44.2322 904.074 42.0909C904.074 39.9879 905.135 38.6648 906.733 38.6648C907.948 38.6648 908.689 39.4318 908.894 40.3523H910.754C910.549 38.3707 908.932 37.054 906.701 37.054C903.933 37.054 902.144 39.1378 902.144 42.1357C902.144 45.0952 903.869 47.1982 906.72 47.1982ZM916.933 47.1982C919.701 47.1982 921.51 45.1719 921.51 42.1357C921.51 39.0803 919.701 37.054 916.933 37.054C914.165 37.054 912.356 39.0803 912.356 42.1357C912.356 45.1719 914.165 47.1982 916.933 47.1982ZM916.94 45.5938C915.131 45.5938 914.287 44.0149 914.287 42.1293C914.287 40.25 915.131 38.652 916.94 38.652C918.736 38.652 919.579 40.25 919.579 42.1293C919.579 44.0149 918.736 45.5938 916.94 45.5938ZM923.643 47H925.554V40.9467C925.554 39.6236 926.481 38.7031 927.568 38.7031C928.629 38.7031 929.364 39.4062 929.364 40.4737V47H931.269V40.7422C931.269 39.5597 931.991 38.7031 933.238 38.7031C934.248 38.7031 935.079 39.2656 935.079 40.5952V47H936.99V40.4162C936.99 38.1726 935.737 37.054 933.96 37.054C932.547 37.054 931.486 37.7315 931.013 38.7798H930.911C930.483 37.706 929.581 37.054 928.271 37.054C926.973 37.054 926.008 37.6996 925.599 38.7798H925.478V37.1818H923.643V47ZM943.783 47.1982C945.924 47.1982 947.439 46.1435 947.874 44.5455L946.065 44.2195C945.72 45.1463 944.889 45.6193 943.802 45.6193C942.166 45.6193 941.066 44.5582 941.015 42.6662H947.995V41.9886C947.995 38.4411 945.873 37.054 943.649 37.054C940.913 37.054 939.11 39.1378 939.11 42.1548C939.11 45.2038 940.887 47.1982 943.783 47.1982ZM941.022 41.2344C941.098 39.8409 942.108 38.6328 943.661 38.6328C945.144 38.6328 946.116 39.7322 946.122 41.2344H941.022Z" fill="black"/>
</svg>
